<?xml version="1.0" encoding="UTF-8"?>
<svg id="Capa_1" data-name="Capa 1" xmlns="http://www.w3.org/2000/svg" xmlns:xlink="http://www.w3.org/1999/xlink" viewBox="0 0 1660 791.38">
  <defs>
    <style>
      .cls-1 {
        fill: url(#linear-gradient);
      }

      .cls-1, .cls-2, .cls-3, .cls-4 {
        stroke-width: 0px;
      }

      .cls-2 {
        fill: #1da1db;
      }

      .cls-3 {
        fill: #fff;
      }

      .cls-4 {
        fill: #00a4ff;
      }
    </style>
    <linearGradient id="linear-gradient" x1="257.2" y1="558.1" x2="539.47" y2="275.82" gradientUnits="userSpaceOnUse">
      <stop offset="0" stop-color="#00a4ff"/>
      <stop offset="1" stop-color="#a6ddfb"/>
    </linearGradient>
  </defs>
  <g>
    <path class="cls-3" d="M680.07,306.42h53.75c19.03,0,32.25,10.61,32.25,25.13,0,9.73-5.09,18.16-13.8,22.37,11.62,4.94,18.45,14.38,18.45,25.42,0,15.98-14.53,26.88-34.87,26.88h-55.79v-99.8ZM727,345.21c5.81,0,10.02-3.2,10.02-7.55s-4.22-7.55-10.02-7.55h-18.89v15.11h18.89ZM731.21,382.55c6.1,0,10.46-3.34,10.46-7.99s-4.36-7.99-10.46-7.99h-23.1v15.98h23.1Z"/>
    <path class="cls-3" d="M858.04,381.1v25.13h-74.67v-99.8h28.18v74.67h46.49Z"/>
    <path class="cls-3" d="M866.32,356.25c0-28.04,24.84-51.57,54.33-51.57s54.33,23.53,54.33,51.57-24.84,51.72-54.33,51.72-54.33-23.68-54.33-51.72ZM945.93,356.25c0-14.09-11.62-26-25.28-26s-25.28,11.91-25.28,26,11.62,26.15,25.28,26.15,25.28-11.91,25.28-26.15Z"/>
    <path class="cls-3" d="M984.73,356.25c0-28.04,24.84-51.57,54.33-51.57,15.98,0,30.51,6.83,40.53,17.58l-20.77,18.16c-4.65-6.1-11.92-10.17-19.76-10.17-13.65,0-25.28,11.91-25.28,26s11.62,26.15,25.28,26.15c7.99,0,15.11-4.07,19.9-10.17l20.63,18.01c-10.02,10.9-24.55,17.72-40.53,17.72-29.49,0-54.33-23.68-54.33-51.72Z"/>
    <path class="cls-3" d="M1091.08,306.42h28.18v39.37l33.56-39.37h33.27l-36.9,41.69,39.81,58.11h-33.71l-25.71-37.77-10.32,11.33v26.44h-28.18v-99.8Z"/>
    <path class="cls-3" d="M1192.63,356.25c0-28.04,24.84-51.57,54.33-51.57,15.98,0,30.51,6.83,40.53,17.58l-20.77,18.16c-4.65-6.1-11.92-10.17-19.76-10.17-13.65,0-25.28,11.91-25.28,26s11.62,26.15,25.28,26.15c7.99,0,15.11-4.07,19.9-10.17l20.63,18.01c-10.02,10.9-24.55,17.72-40.53,17.72-29.49,0-54.33-23.68-54.33-51.72Z"/>
    <path class="cls-3" d="M1391.81,306.42v99.8h-28.18v-38.35h-36.46v38.35h-28.18v-99.8h28.18v36.32h36.46v-36.32h28.18Z"/>
    <path class="cls-3" d="M1472.3,392.86h-34.72l-5.09,13.37h-31.82l38.36-99.8h31.81l38.35,99.8h-31.81l-5.09-13.37ZM1464.31,372.09l-9.3-24.26-9.44,24.26h18.74Z"/>
    <path class="cls-3" d="M1518.64,306.42h28.18v99.8h-28.18v-99.8Z"/>
    <path class="cls-3" d="M1564.7,306.42h28.18l38.93,53.46v-53.46h28.18v99.8h-28.18l-38.93-53.46v53.46h-28.18v-99.8Z"/>
  </g>
  <g>
    <path class="cls-1" d="M347.02,365.59h-25.66v-25.66h25.66v25.66ZM411.16,461.8v-25.66h-25.66s0,25.66,0,25.66h25.66ZM443.23,622.26v-25.66h-25.66v25.66h25.66ZM347.02,493.87v-25.66s-25.66,0-25.66,0v25.66s25.66,0,25.66,0ZM411.16,558.12v-25.66s-25.66,0-25.66,0v25.66h25.66ZM443.23,590.19v-25.66h-25.66s0,25.66,0,25.66h25.66ZM411.16,493.87v-25.66h-25.66s0,25.66,0,25.66h25.66ZM443.23,526.06v-25.66h-25.66v25.66h25.66ZM347.02,590.19v-25.66s-25.66,0-25.66,0v25.66h25.66ZM282.88,365.59v-25.66h-25.66s0,25.66,0,25.66h25.66ZM571.51,333.52v-25.66s-25.66,0-25.66,0v25.66h25.66ZM282.88,461.8v-25.66h-25.66s0,25.66,0,25.66h25.66ZM411.16,301.45v-25.66h-25.66v25.66h25.66ZM475.3,269.38v-25.66s-25.66,0-25.66,0v25.66s25.66,0,25.66,0ZM347.02,269.38v-25.66s-25.66,0-25.66,0v25.66h25.66ZM282.88,558.12v-25.66s-25.66,0-25.66,0v25.66h25.66ZM314.95,397.66v-25.66h-25.66s0,25.66,0,25.66h25.66ZM379.09,429.73v-25.66s-25.66,0-25.66,0v25.66h25.66Z"/>
    <path class="cls-3" d="M250.81,237.31h-25.66v-25.66h25.66s0,25.66,0,25.66ZM250.81,269.38v-25.66s-25.66,0-25.66,0v25.66h25.66ZM282.88,237.31v-25.66h-25.66v25.66s25.66,0,25.66,0ZM282.88,269.38v-25.66s-25.66,0-25.66,0v25.66s25.66,0,25.66,0ZM282.88,301.45v-25.66s-25.66,0-25.66,0v25.66h25.66ZM314.95,269.38v-25.66h-25.66s0,25.66,0,25.66h25.66ZM314.95,301.45v-25.66s-25.66,0-25.66,0v25.66h25.66ZM347.02,301.45v-25.66s-25.66,0-25.66,0v25.66h25.66ZM379.09,301.45v-25.66s-25.66,0-25.66,0v25.66s25.66,0,25.66,0ZM379.09,333.52v-25.66s-25.66,0-25.66,0v25.66s25.66,0,25.66,0ZM379.09,365.59v-25.66s-25.66,0-25.66,0v25.66s25.66,0,25.66,0ZM411.16,333.52v-25.66h-25.66v25.66h25.66ZM411.16,365.59v-25.66s-25.66,0-25.66,0v25.66h25.66ZM411.16,397.66v-25.66h-25.66v25.66h25.66ZM443.23,333.52v-25.66h-25.66s0,25.66,0,25.66h25.66ZM443.23,365.59v-25.66h-25.66v25.66s25.66,0,25.66,0ZM443.23,397.66v-25.66s-25.66,0-25.66,0v25.66h25.66ZM443.23,429.73v-25.66s-25.66,0-25.66,0v25.66h25.66ZM443.23,461.8v-25.66h-25.66v25.66s25.66,0,25.66,0ZM475.3,333.52v-25.66s-25.66,0-25.66,0v25.66s25.66,0,25.66,0ZM475.3,365.59v-25.66s-25.66,0-25.66,0v25.66s25.66,0,25.66,0ZM475.3,397.66v-25.66s-25.66,0-25.66,0v25.66s25.66,0,25.66,0ZM475.3,429.73v-25.66s-25.66,0-25.66,0v25.66s25.66,0,25.66,0ZM475.3,461.8v-25.66s-25.66,0-25.66,0v25.66h25.66ZM475.3,493.87v-25.66h-25.66s0,25.66,0,25.66h25.66ZM475.3,526.06v-25.66h-25.66v25.66s25.66,0,25.66,0ZM475.3,558.12v-25.66s-25.66,0-25.66,0v25.66h25.66ZM475.3,590.19v-25.66s-25.66,0-25.66,0v25.66h25.66ZM475.3,622.26v-25.66s-25.66,0-25.66,0v25.66h25.66ZM507.37,333.52v-25.66h-25.66s0,25.66,0,25.66h25.66ZM507.37,365.59v-25.66h-25.66v25.66s25.66,0,25.66,0ZM507.37,397.66v-25.66h-25.66s0,25.66,0,25.66h25.66ZM507.37,429.73v-25.66s-25.66,0-25.66,0v25.66s25.66,0,25.66,0ZM507.37,461.8v-25.66h-25.66v25.66h25.66ZM507.37,493.87v-25.66h-25.66s0,25.66,0,25.66h25.66ZM507.37,526.06v-25.66s-25.66,0-25.66,0v25.66s25.66,0,25.66,0ZM507.37,558.12v-25.66h-25.66v25.66s25.66,0,25.66,0ZM507.37,590.19v-25.66h-25.66v25.66h25.66ZM539.44,333.52v-25.66h-25.66v25.66s25.66,0,25.66,0ZM539.44,365.59v-25.66s-25.66,0-25.66,0v25.66h25.66ZM539.44,397.66v-25.66s-25.66,0-25.66,0v25.66s25.66,0,25.66,0ZM539.44,429.73v-25.66h-25.66s0,25.66,0,25.66h25.66ZM539.44,461.8v-25.66h-25.66s0,25.66,0,25.66h25.66ZM539.44,493.87v-25.66h-25.66s0,25.66,0,25.66h25.66ZM539.44,526.06v-25.66h-25.66v25.66h25.66ZM539.44,558.12v-25.66s-25.66,0-25.66,0v25.66h25.66ZM571.51,365.59v-25.66h-25.66s0,25.66,0,25.66h25.66ZM571.51,397.66v-25.66s-25.66,0-25.66,0v25.66h25.66ZM571.51,429.73v-25.66h-25.66s0,25.66,0,25.66h25.66ZM571.51,461.8v-25.66s-25.66,0-25.66,0v25.66h25.66ZM571.51,493.87v-25.66s-25.66,0-25.66,0v25.66s25.66,0,25.66,0ZM603.58,365.59v-25.66h-25.66s0,25.66,0,25.66h25.66ZM603.58,397.66v-25.66s-25.66,0-25.66,0v25.66s25.66,0,25.66,0ZM603.58,429.73v-25.66s-25.66,0-25.66,0v25.66h25.66ZM603.58,461.8v-25.66h-25.66v25.66s25.66,0,25.66,0ZM603.58,493.87v-25.66h-25.66s0,25.66,0,25.66h25.66ZM635.65,397.66v-25.66h-25.66s0,25.66,0,25.66h25.66ZM635.65,429.73v-25.66h-25.66s0,25.66,0,25.66h25.66ZM635.65,461.8v-25.66h-25.66s0,25.66,0,25.66h25.66Z"/>
  </g>
  <g>
    <path class="cls-3" d="M28.91,480.73l1.2,4.76c7.72,30.57,19.34,60.02,34.54,87.53l2.38,4.3-26.1,14.42-2.38-4.3c-16.43-29.75-29-61.59-37.35-94.64l-1.2-4.76,28.91-7.3Z"/>
    <path class="cls-3" d="M87.87,320.26c14.53-59.7,46.21-113.06,91.63-154.32l3.63-3.3,20.05,22.07-3.64,3.3c-40.99,37.24-69.59,85.4-82.7,139.3-36.16,148.56,55.28,298.84,203.84,335,18.84,4.59,38.26,7.16,57.7,7.65,93.03,2.34,183.58-43.53,236.22-119.73l2.79-4.04,24.53,16.95-2.79,4.04c-34.96,50.61-83.86,89.26-141.42,111.77-35.83,14.01-73.22,21.1-111.26,21.1-2.58,0-5.17-.03-7.76-.1-21.79-.55-43.68-3.47-65.06-8.67-164.53-40.05-265.81-206.49-225.76-371.03Z"/>
    <path class="cls-3" d="M282.37,103.98c56.75-20.5,117.79-23.78,176.52-9.49,89.25,21.72,163.5,81.76,203.71,164.71l2.14,4.42-26.83,13.01-2.14-4.42c-36.32-74.92-103.36-129.13-183.93-148.74-53.02-12.91-108.12-9.95-159.34,8.56l-4.62,1.67-10.13-28.04,4.62-1.67Z"/>
    <path class="cls-4" d="M13.91,261.08c8.33,5.63,19.64,3.44,25.27-4.89,5.63-8.33,3.44-19.64-4.89-25.27-8.33-5.63-19.64-3.44-25.27,4.9-5.63,8.33-3.44,19.64,4.89,25.27Z"/>
    <path class="cls-2" d="M228.01,157.78c8.19,5.84,19.55,3.93,25.39-4.26,5.84-8.19,3.93-19.55-4.26-25.39-8.19-5.84-19.55-3.93-25.39,4.25-5.84,8.19-3.93,19.55,4.26,25.39Z"/>
    <path class="cls-3" d="M175.95,696.24l4.07,2.75c167.2,112.94,395.11,68.79,508.05-98.4,9-13.33,17.12-27.26,24.28-41.59l27.95,10.78c-8.05,16.39-17.26,32.31-27.52,47.5-73.64,109.02-196.45,174.1-328.52,174.1-78.98,0-155.37-23.4-220.93-67.68l-4.07-2.75,16.69-24.71Z"/>
    <path class="cls-3" d="M216.48,37.57C277.42,9,345.12-3.67,412.24.92c69.2,4.74,136.33,27.87,194.12,66.91,67.69,45.73,119.5,111.4,148.35,187.24l-27.83,10.7c-26.67-70.16-74.59-130.93-137.21-173.23C483.48,20.8,345.33,10.09,229.14,64.57l-4.45,2.08-12.66-27,4.45-2.09Z"/>
  </g>
  <g>
    <path class="cls-3" d="M733.61,477.88c-3.01-1.73-6.34-3.13-10-4.2-3.66-1.07-7.35-2.04-11.05-2.9-3.7-.86-7.06-1.75-10.06-2.65-3.01-.9-5.43-2.16-7.28-3.77-1.85-1.6-2.78-3.72-2.78-6.36,0-2.22.64-4.2,1.91-5.93,1.28-1.73,3.29-3.13,6.05-4.2,2.76-1.07,6.36-1.6,10.8-1.6,3.78,0,7.73.56,11.85,1.67,4.11,1.11,8.11,2.82,11.98,5.12l5.06-12.47c-3.79-2.47-8.23-4.36-13.33-5.68-5.1-1.32-10.25-1.98-15.43-1.98-7.9,0-14.42,1.17-19.57,3.52-5.14,2.34-8.97,5.47-11.48,9.38-2.51,3.91-3.77,8.21-3.77,12.9s.95,8.39,2.84,11.36c1.89,2.96,4.34,5.33,7.35,7.1,3,1.77,6.34,3.21,10,4.32,3.66,1.11,7.32,2.08,10.99,2.9,3.66.82,6.99,1.71,10,2.65,3,.95,5.45,2.22,7.35,3.83,1.89,1.6,2.84,3.72,2.84,6.36,0,2.14-.66,4.05-1.98,5.74-1.32,1.69-3.38,3.02-6.17,4.01-2.8.99-6.46,1.48-10.99,1.48-5.35,0-10.58-.9-15.68-2.72-5.1-1.81-9.38-4.07-12.84-6.79l-5.56,12.47c3.62,3.05,8.52,5.54,14.69,7.47,6.17,1.93,12.63,2.9,19.38,2.9,7.9,0,14.44-1.17,19.63-3.52s9.03-5.47,11.54-9.38c2.51-3.91,3.77-8.17,3.77-12.78s-.93-8.27-2.78-11.23-4.28-5.31-7.28-7.04Z"/>
    <path class="cls-3" d="M818.73,482.33c0,8.89-1.89,15.35-5.68,19.38-3.79,4.03-9.18,6.05-16.17,6.05s-12.41-2.02-16.23-6.05c-3.83-4.03-5.74-10.49-5.74-19.38v-48.15h-16.05v48.77c0,12.59,3.35,22.22,10.06,28.89,6.71,6.67,15.99,10,27.84,10s21.01-3.33,27.72-10c6.71-6.67,10.06-16.3,10.06-28.89v-48.77h-15.8v48.15Z"/>
    <polygon class="cls-3" points="938.24 434.18 904.51 491.44 870.21 434.18 857 434.18 857 520.6 872.31 520.6 872.31 464.09 900.71 510.72 907.87 510.72 936.27 463.34 936.39 520.6 951.57 520.6 951.45 434.18 938.24 434.18"/>
    <polygon class="cls-3" points="1056.14 434.18 1022.41 491.44 988.11 434.18 974.9 434.18 974.9 520.6 990.21 520.6 990.21 464.09 1018.61 510.72 1025.77 510.72 1054.17 463.34 1054.29 520.6 1069.47 520.6 1069.35 434.18 1056.14 434.18"/>
    <rect class="cls-3" x="1092.8" y="434.18" width="16.05" height="86.42"/>
    <polygon class="cls-3" points="1121.07 447.76 1149.71 447.76 1149.71 520.6 1165.76 520.6 1165.76 447.76 1194.4 447.76 1194.4 434.18 1121.07 434.18 1121.07 447.76"/>
    <polygon class="cls-3" points="1256.62 434.18 1240.57 434.18 1240.57 520.6 1301.81 520.6 1301.81 507.02 1256.62 507.02 1256.62 434.18"/>
    <path class="cls-3" d="M1341.31,434.18l-38.89,86.42h16.54l8.56-20h43.22l8.59,20h16.79l-39.01-86.42h-15.8ZM1332.91,488l16.18-37.82,16.24,37.82h-32.43Z"/>
    <polygon class="cls-3" points="1465.02 434.18 1391.68 434.18 1391.68 447.76 1420.32 447.76 1420.32 520.6 1436.37 520.6 1436.37 447.76 1465.02 447.76 1465.02 434.18"/>
    <path class="cls-3" d="M1499.46,434.18l-38.89,86.42h16.54l8.56-20h43.22l8.59,20h16.79l-39.01-86.42h-15.8ZM1491.06,488l16.18-37.82,16.24,37.82h-32.43Z"/>
    <polygon class="cls-3" points="1659.83 520.6 1659.7 434.18 1646.49 434.18 1612.76 491.44 1578.47 434.18 1565.26 434.18 1565.26 520.6 1580.57 520.6 1580.57 464.09 1608.96 510.72 1616.12 510.72 1644.53 463.34 1644.64 520.6 1659.83 520.6"/>
  </g>
</svg>