<?xml version="1.0" encoding="UTF-8" standalone="no"?>
<svg
   version="1.1"
   width="1311px"
   height="245px"
   style="shape-rendering:geometricPrecision; text-rendering:geometricPrecision; image-rendering:optimizeQuality; fill-rule:evenodd; clip-rule:evenodd"
   id="svg22"
   sodipodi:docname="logo-full-hashpass-black.svg"
   inkscape:version="1.4.2 (ebf0e940d0, 2025-05-08)"
   xmlns:inkscape="http://www.inkscape.org/namespaces/inkscape"
   xmlns:sodipodi="http://sodipodi.sourceforge.net/DTD/sodipodi-0.dtd"
   xmlns="http://www.w3.org/2000/svg"
   xmlns:svg="http://www.w3.org/2000/svg">
  <defs
     id="defs22" />
  <sodipodi:namedview
     id="namedview22"
     pagecolor="#ffffff"
     bordercolor="#000000"
     borderopacity="0.25"
     inkscape:showpageshadow="2"
     inkscape:pageopacity="0.0"
     inkscape:pagecheckerboard="0"
     inkscape:deskcolor="#d1d1d1"
     inkscape:zoom="0.9195271"
     inkscape:cx="828.14307"
     inkscape:cy="433.91869"
     inkscape:window-width="2560"
     inkscape:window-height="1368"
     inkscape:window-x="0"
     inkscape:window-y="594"
     inkscape:window-maximized="1"
     inkscape:current-layer="svg22" />
  <g
     id="g8"
     transform="translate(6.5250933,3.2625467)">
    <path
       style="opacity:1"
       fill="#fcfcfc"
       d="m 1052.5,58.5 c 21.71,-1.4924 41.37,4.0076 59,16.5 -4.81,7.1362 -9.97,13.9695 -15.5,20.5 -12.25,-8.3073 -25.75,-12.1406 -40.5,-11.5 -9.02,2.2085 -12.18,7.7085 -9.5,16.5 2.56,3.031 5.73,5.198 9.5,6.5 15.46,3.616 30.46,8.616 45,15 12.72,8.946 17.55,21.112 14.5,36.5 -4.75,17.65 -16.25,27.817 -34.5,30.5 -26.47,4.385 -49.8,-2.115 -70,-19.5 5.35,-6.848 11.18,-13.181 17.5,-19 9.03,7.098 19.2,11.932 30.5,14.5 7.98,1.217 15.64,0.217 23,-3 5.91,-5.495 6.25,-11.161 1,-17 -4.76,-2.587 -9.76,-4.587 -15,-6 -12.53,-2.464 -24.53,-6.464 -36,-12 -13.21,-8.95 -18.38,-21.45 -15.5,-37.5 3.15,-10.4807 9.32,-18.6474 18.5,-24.5 5.93,-2.6974 11.93,-4.8641 18,-6.5 z"
       id="path8" />
  </g>
  <g
     id="g9"
     transform="translate(6.5250933,3.2625467)">
    <path
       style="opacity:1"
       fill="#fcfcfc"
       d="m 1248.5,90.5 c -1.64,1.8162 -3.14,3.8162 -4.5,6 -13.19,-10.3387 -28.02,-14.172 -44.5,-11.5 -8.46,5.5101 -9.13,11.8435 -2,19 14.88,5.27 29.88,10.27 45,15 17.66,8.49 24.16,22.323 19.5,41.5 -0.9,3.451 -2.06,6.784 -3.5,10 -8.56,11.622 -20.22,18.122 -35,19.5 -3.65,0.499 -7.32,0.665 -11,0.5 -20.71,-0.37 -38.71,-7.37 -54,-21 5.32,-6.657 10.99,-12.99 17,-19 6.28,4.433 12.95,8.266 20,11.5 10.57,4.136 21.23,4.47 32,1 8.62,-6.064 8.95,-12.397 1,-19 -13.52,-4.796 -27.19,-9.13 -41,-13 -7.96,-2.971 -14.46,-7.804 -19.5,-14.5 -10.02,-23.096 -4.19,-40.7626 17.5,-53 26.57,-8.7993 51.23,-4.966 74,11.5 -3.89,5.0459 -7.55,10.2126 -11,15.5 z"
       id="path9" />
  </g>
  <g
     id="g11"
     transform="translate(6.5250933,3.2625467)">
    <path
       style="opacity:1"
       fill="#415166"
       d="m 116.5,68.5 c 0,-0.3333 0,-0.6667 0,-1 8.918,-0.3172 17.751,0.0161 26.5,1 0.5,42.332 0.667,84.665 0.5,127 -9,0 -18,0 -27,0 0,-17.333 0,-34.667 0,-52 -18,0 -36,0 -54,0 0,17.333 0,34.667 0,52 -9.3333,0 -18.6667,0 -28,0 0,-42.667 0,-85.333 0,-128 9.2506,-0.3178 18.4172,0.0155 27.5,1 0.4999,16.9967 0.6666,33.997 0.5,51 18,0 36,0 54,0 0,-17 0,-34 0,-51 z"
       id="path11" />
  </g>
  <g
     id="g12"
     transform="translate(6.5250933,3.2625467)">
    <path
       style="opacity:1"
       fill="#415064"
       d="m 290.5,178.5 c -8.592,-21.426 -17.592,-42.76 -27,-64 -12.39,27.445 -24.223,55.111 -35.5,83 -11.753,0.988 -23.586,1.321 -35.5,1 15.183,-35.366 31.183,-70.366 48,-105 2.563,-6.1254 5.396,-12.1254 8.5,-18 1.167,-2.5 3,-4.3333 5.5,-5.5 5.218,-1.5628 10.551,-1.8962 16,-1 2.141,1.3076 4.141,2.8076 6,4.5 19.123,39.91 37.956,79.91 56.5,120 0.494,1.634 0.66,3.301 0.5,5 -11.338,0.167 -22.672,0 -34,-0.5 -2.712,-6.639 -5.712,-13.139 -9,-19.5 z"
       id="path12" />
  </g>
  <g
     id="g13"
     transform="translate(6.5250933,3.2625467)">
    <path
       style="opacity:1"
       fill="#404e61"
       d="m 613.5,144.5 c -17.826,-0.997 -35.826,-1.33 -54,-1 0,17.333 0,34.667 0,52 -9,0 -18,0 -27,0 0,-42.333 0,-84.667 0,-127 8.818,-0.9933 17.818,-1.3266 27,-1 0,17.3333 0,34.667 0,52 18,0 36,0 54,0 -0.167,-17.003 0,-34.0033 0.5,-51 8.749,-0.9839 17.582,-1.3172 26.5,-1 0,42.667 0,85.333 0,128 -9,0 -18,0 -27,0 0,-17 0,-34 0,-51 z"
       id="path13" />
  </g>
  <g
     id="g14"
     transform="translate(6.5250933,3.2625467)">
    <path
       style="opacity:1"
       fill="#af0d01"
       d="m 921.5,100.5 c 12.697,6.681 25.697,12.848 39,18.5 2.109,1.141 3.942,2.641 5.5,4.5 3.913,7.787 3.08,14.954 -2.5,21.5 -7.974,4.143 -15.974,7.977 -24,11.5 -4.522,1.764 -8.855,3.764 -13,6 -27.11,12.556 -54.443,24.556 -82,36 -0.167,-10.672 0,-21.339 0.5,-32 0.5,-0.5 1,-1 1.5,-1.5 26.021,-10.354 51.688,-21.187 77,-32.5 -25.827,-11.387 -51.827,-22.387 -78,-33 -0.999,-10.9798 -1.332,-21.9798 -1,-33 25.784,11.0586 51.451,22.3919 77,34 z"
       id="path14" />
  </g>
  <path
     style="fill:#000000;stroke-width:1.08752"
     d="M 716.67275,133.86001 V 70.879692 l 4.07818,-0.673622 c 6.66475,-1.100863 51.29937,1.295283 57.1436,3.067672 16.4462,4.987662 25.12345,20.766613 22.37185,40.681578 -3.01206,21.8 -19.04473,31.73861 -51.24005,31.76355 l -10.60327,0.008 v 25.55661 25.55662 H 727.5479 716.67275 Z m 54.48843,-13.82202 c 4.08331,-2.37677 6.25227,-7.104 6.35106,-13.84209 0.0487,-3.32387 -0.67105,-4.91937 -3.49177,-7.740085 -4.41382,-4.413819 -11.15998,-6.016993 -25.31954,-6.016993 h -10.27787 v 15.367088 15.36708 l 14.52223,-0.49252 c 11.8939,-0.40338 15.19074,-0.88164 18.21589,-2.64248 z"
     id="path23" />
  <path
     style="fill:#000000;stroke-width:1.08752"
     d="m 1063.5902,192.35248 c -9.8138,-0.82003 -15.7481,-2.35729 -24.6183,-6.37736 -6.4841,-2.93865 -19.2415,-11.0019 -20.4176,-12.90478 -0.3204,-0.5185 3.0952,-4.90151 7.5903,-9.74005 l 8.1729,-8.79734 6.5933,4.26145 c 11.3971,7.3663 26.1413,11.70154 35.0284,10.29937 12.4016,-1.95668 17.0005,-5.48906 17.0099,-13.06518 0.01,-7.18528 -5.4208,-10.78575 -22.9457,-15.21568 -16.0955,-4.0686 -30.86,-10.10789 -36.2271,-14.81835 -2.4839,-2.17995 -5.9564,-6.58439 -7.7168,-9.78764 -2.8256,-5.14156 -3.2036,-6.90739 -3.2259,-15.06797 -0.023,-8.486733 0.2797,-9.806191 3.697,-16.108925 5.333,-9.835916 12.2,-15.579271 23.5279,-19.678194 11.139,-4.030573 19.0378,-4.330709 33.7992,-1.284298 9.8272,2.028122 25.6639,8.602127 30.6443,12.720872 l 2.5173,2.081807 -7.1025,9.416186 -7.1024,9.416186 -7.3131,-3.679396 c -17.0971,-8.602088 -38.588,-9.428771 -42.754,-1.644604 -0.6159,1.150753 -1.1198,4.301767 -1.1198,7.002249 0,4.302127 0.456,5.257757 3.6832,7.719277 2.0258,1.54511 7.2866,3.79052 11.6908,4.9898 24.8877,6.77701 39.9764,13.07787 45.7451,19.10266 11.3804,11.88547 11.7293,30.96309 0.837,45.77432 -8.6324,11.73816 -26.7854,17.32481 -49.9934,15.38559 z"
     id="path24" />
  <path
     style="fill:#000000;stroke-width:1.08752"
     d="m 1207.7167,192.36662 c -10.3635,-1.50945 -22.7713,-6.16427 -31.2912,-11.73893 -11.8538,-7.75611 -11.7254,-7.01318 -2.9422,-17.01809 4.171,-4.75125 7.9451,-8.63863 8.3868,-8.63863 0.4417,0 4.4175,2.14027 8.8352,4.75615 11.4074,6.75478 18.0388,8.83895 28.1006,8.83173 10.8635,-0.008 15.7949,-1.42796 19.2607,-5.54677 3.6681,-4.35929 3.5997,-8.74005 -0.202,-12.94929 -2.9453,-3.261 -11.9926,-6.69691 -40.3887,-15.33854 -10.2851,-3.12999 -19.6238,-9.83394 -22.7655,-16.34248 -7.8475,-16.25783 -5.0488,-32.47081 7.5626,-43.809521 7.1587,-6.436304 10.2002,-8.003768 19.2536,-9.922609 14.8431,-3.145955 33.6049,-1.590819 46.4069,3.846608 6.7974,2.887015 16.8471,8.886987 16.8471,10.058146 0,0.484678 -3.2352,5.22991 -7.1894,10.544958 l -7.1895,9.663726 -4.992,-3.165846 c -8.5709,-5.435532 -16.1609,-7.734373 -27.3923,-8.296562 -9.5203,-0.476543 -10.6236,-0.316502 -14.0538,2.038628 -5.9624,4.093638 -6.9952,10.604454 -2.5446,16.041472 1.3122,1.60299 8.9862,4.69957 24.3239,9.815 25.243,8.41907 27.5915,9.46684 33.8357,15.09574 9.2695,8.35601 11.9653,21.53456 7.4164,36.2557 -1.7029,5.51067 -3.3009,8.05733 -7.8845,12.56475 -11.9645,11.7656 -29.8852,16.38742 -51.3938,13.25466 z"
     id="path25" />
  <path
     style="fill:#000000;stroke-width:1.08752"
     d="m 41.325591,134.96828 c 0,-55.294011 0.201006,-63.036683 1.650931,-63.593071 0.908012,-0.348437 7.025287,-0.326023 13.593944,0.04981 L 68.51348,72.108347 V 97.498803 122.88926 H 96.245126 123.97677 V 97.396824 c 0,-14.020839 0.44,-25.76437 0.97778,-26.096736 0.53778,-0.332366 6.16568,-0.286878 12.50643,0.101084 l 11.52865,0.705387 v 62.910641 62.91063 h -12.48675 -12.48675 l -0.29156,-25.82849 -0.29156,-25.82849 -27.459763,-0.29056 -27.459767,-0.29055 v 26.11905 26.11904 H 54.919535 41.325591 Z"
     id="path26" />
  <path
     style="fill:#000000;stroke-width:1.08752"
     d=""
     id="path27" />
  <path
     style="fill:#000000;stroke-width:1.08752"
     d="m 408.19298,201.87351 c -11.54282,-2.51034 -26.14811,-9.36811 -34.65964,-16.27411 l -2.73745,-2.22109 8.44038,-9.0868 8.44039,-9.0868 6.52509,4.36675 c 8.45957,5.66135 18.24138,8.8864 29.32562,9.66863 14.33095,1.01135 22.33137,-2.81349 22.33137,-10.67617 0,-9.30329 -0.51305,-9.64484 -28.50086,-18.97374 -24.30954,-8.10285 -25.5005,-8.6325 -30.9056,-13.74442 -14.13316,-13.36655 -14.30461,-34.05312 -0.40721,-49.130035 9.62799,-10.44513 20.66686,-14.32955 38.01874,-13.37823 13.86898,0.76038 21.73441,2.76192 33.21384,8.45204 14.11717,6.99758 13.6623,5.80315 6.37824,16.7486 -7.18427,10.795535 -5.92468,10.526685 -19.97218,4.262835 -7.80486,-3.480215 -10.70517,-4.193845 -18.63079,-4.584125 -5.65882,-0.27865 -10.95731,0.056 -13.34098,0.84273 -6.16111,2.033345 -8.89312,9.221585 -5.95537,15.669255 1.96423,4.31101 20.44102,11.6183 35.94781,14.21681 6.34781,1.06372 18.89839,7.90379 24.16396,13.16936 6.53067,6.53067 8.75162,13.31782 7.95315,24.30465 -1.07011,14.72464 -5.40352,22.28691 -16.98028,29.63243 -8.3663,5.30845 -17.24263,7.45708 -30.40042,7.35881 -6.36694,-0.0475 -14.57845,-0.73938 -18.24781,-1.53738 z"
     id="path29" />
  <path
     style="fill:#000000;stroke-width:1.08752"
     d="M 539.40771,135.0172 V 72.106559 l 11.36547,-0.695402 c 6.251,-0.382472 12.12359,-0.404483 13.05018,-0.04891 1.45485,0.558277 1.68472,4.117696 1.68472,26.086752 v 25.440261 h 27.71197 27.71196 l 0.29156,-25.584883 0.29157,-25.584885 11.96267,-0.243609 11.96267,-0.24361 0.28064,63.347777 0.28065,63.34778 h -12.5152 -12.51519 V 172.54317 147.1585 l -20.39092,-0.71263 c -11.215,-0.39195 -23.69424,-0.71402 -27.73165,-0.71571 l -7.34073,-0.003 v 26.10037 26.10037 H 552.4579 539.40771 Z"
     id="path30" />
  <path
     style="fill:#ffffff;stroke-width:1.08752"
     d="m 41.468361,160.13667 c 0.07852,-20.78515 0.44556,-49.04696 0.815637,-62.804028 l 0.672866,-25.012858 7.068851,-0.346903 c 3.887869,-0.190797 9.638107,-0.03324 12.778308,0.350133 l 5.709457,0.697035 v 24.934604 24.934607 h 27.731646 27.731644 v -9.07098 c 0,-4.98903 0.3211,-16.489508 0.71356,-25.556612 l 0.71355,-16.485641 7.71469,0.01197 c 4.24308,0.0066 9.54988,0.315306 11.79288,0.686051 l 4.07818,0.674082 v 62.42547 62.42546 l -12.23455,-0.30749 -12.23455,-0.3075 -0.29156,-25.82849 -0.29156,-25.8285 H 96.225444 68.51348 v 26.10038 26.10037 H 54.919535 41.325591 Z"
     id="path31" />
  <path
     style="fill:#ffffff;stroke-width:1.08752"
     d="m 405.62066,200.70935 c -6.89875,-1.79622 -26.25776,-11.14117 -30.85021,-14.89197 l -3.11856,-2.54704 8.06083,-8.54494 8.06083,-8.54495 7.555,4.55664 c 9.77588,5.8961 16.15171,7.80529 28.50699,8.53616 11.03962,0.65305 18.86842,-1.27612 20.94809,-5.16201 1.84245,-3.44265 1.31292,-12.47468 -0.8459,-14.42838 -2.18799,-1.9801 -15.66516,-7.24543 -33.96701,-13.2704 -15.90731,-5.23668 -19.35705,-7.00089 -24.2243,-12.38835 -6.97629,-7.72192 -8.90905,-12.5946 -8.89363,-22.42183 0.0108,-6.90398 0.54001,-9.77332 2.56321,-13.898493 4.01949,-8.19545 11.2966,-15.49265 19.45568,-19.50936 6.63042,-3.26416 8.26662,-3.59849 19.23252,-3.92991 8.0003,-0.24179 14.66374,0.20255 20.04012,1.33635 9.49989,2.00338 28.75399,11.17136 29.26392,13.93423 0.35084,1.90087 -6.83681,13.352253 -10.05952,16.026863 -1.54367,1.28113 -3.16204,0.91188 -11.80515,-2.6935 -9.15231,-3.817783 -11.06868,-4.217603 -22.21811,-4.635473 l -12.20187,-0.45732 -3.29522,3.295233 c -2.71858,2.71858 -3.29523,4.17534 -3.29523,8.32462 0,4.02713 0.5669,5.55479 2.84469,7.66577 3.55768,3.29715 17.04213,8.55401 29.23417,11.39682 16.95723,3.95391 31.06199,13.43428 34.8865,23.44862 2.49145,6.52379 1.75416,21.89848 -1.37885,28.75279 -4.04052,8.83975 -13.21813,16.20581 -24.62969,19.76805 -7.95756,2.48405 -30.79119,2.64542 -39.8693,0.28178 z"
     id="path33" />
  <path
     style="fill:#ffffff;stroke-width:1.08752"
     d="m 645.23371,133.22066 c 0.006,-3.58881 0.20913,-4.92584 0.45117,-2.9712 0.24204,1.95465 0.23704,4.89094 -0.0111,6.5251 -0.24814,1.63415 -0.44617,0.0349 -0.44007,-3.5539 z"
     id="path34" />
  <path
     style="fill:#ffffff;stroke-width:1.08752"
     d="M 539.40771,135.53798 V 73.148128 l 4.07819,-0.674082 c 2.243,-0.370745 7.79477,-0.679468 12.33726,-0.686051 l 8.25908,-0.01197 0.70895,15.497096 c 0.38992,8.523403 0.71073,20.023879 0.71292,25.556619 l 0.004,10.05952 h 27.58935 27.58935 l 0.67409,-4.07819 c 0.37074,-2.243 0.67946,-13.74347 0.68605,-25.556613 l 0.012,-21.478432 h 11.41891 11.41891 v 56.391285 c 0,31.0152 0.31441,59.39936 0.69868,63.0759 l 0.69868,6.68462 h -12.66135 -12.66135 v -25.39704 -25.39703 l -8.32045,-0.70334 c -4.57624,-0.38684 -17.05548,-0.70334 -27.73164,-0.70334 h -19.4112 v 26.10038 26.10037 H 552.4579 539.40771 Z"
     id="path35" />
  <path
     style="fill:#ffffff;stroke-width:1.08752"
     d="m 1060.3277,191.47522 c -3.2898,-0.47904 -8.1836,-1.46778 -10.8752,-2.19721 -5.9633,-1.61605 -22.6829,-10.26897 -27.262,-14.10888 l -3.3365,-2.79791 7.8061,-8.45939 7.8062,-8.45939 3.4149,2.28429 c 15.1104,10.10752 32.2895,14.08605 44.6979,10.35167 7.7397,-2.32932 10.374,-5.29415 10.374,-11.67573 0,-8.50547 -3.1352,-10.63521 -24.5262,-16.66048 -14.81,-4.17158 -30.8248,-11.00656 -35.017,-14.94497 -1.3678,-1.28494 -4.0366,-4.75136 -5.9308,-7.70315 -2.982,-4.64711 -3.5068,-6.56491 -3.9127,-14.29956 -0.3824,-7.284762 -0.069,-9.817181 1.6972,-13.727355 5.3125,-11.759751 14.1212,-19.420122 27.4515,-23.872955 6.0037,-2.005481 8.7894,-2.286224 18.4877,-1.863191 12.3222,0.537482 22.371,3.28446 35.2131,9.625982 10.6756,5.27166 10.6078,4.930691 2.9745,14.95821 l -6.6576,8.745696 -6.793,-3.161628 c -9.6294,-4.481779 -18.4349,-6.508025 -28.282,-6.508025 -13.6777,0 -16.535,2.467326 -15.8261,13.666016 0.3369,5.32299 0.387,5.38887 6.3209,8.31365 3.2898,1.62149 12.5585,4.96929 20.5972,7.43958 25.4977,7.83535 34.588,13.4257 39.2696,24.14998 6.3911,14.64007 0.58,34.29019 -12.752,43.12098 -2.8342,1.8773 -8.2579,4.37223 -12.0526,5.54429 -7.8568,2.42675 -24.0354,3.52844 -32.8871,2.23948 z"
     id="path37" />
  <path
     style="fill:#000000;stroke-width:1.08752"
     d="m 1203.2375,190.87621 c -13.8698,-3.01777 -34.702,-14.08397 -34.702,-18.43391 0,-1.03932 2.9066,-5.23735 6.4591,-9.32896 l 6.4591,-7.43928 11.7802,6.13605 c 11.6427,6.06437 11.9068,6.14113 22.608,6.57095 13.7877,0.55379 17.6213,-0.204 21.7085,-4.29121 2.5015,-2.50153 3.3048,-4.29206 3.3048,-7.3662 0,-7.71405 -4.6117,-10.42377 -33.2092,-19.51282 -13.31,-4.23024 -18.8933,-6.58343 -23.5754,-9.93624 -8.2611,-5.91561 -11.9064,-13.2023 -12.6002,-25.18658 -0.4613,-7.969569 -0.2465,-9.106452 2.9456,-15.590654 7.7953,-15.834371 21.3622,-22.683924 44.6889,-22.562209 13.0349,0.06801 22.6808,2.29398 33.4888,7.728155 12.6201,6.34523 12.5391,6.044875 4.5404,16.844515 l -6.7876,9.164524 -6.9159,-3.801447 c -9.2183,-5.067032 -16.4173,-6.84121 -27.8222,-6.856742 -9.0589,-0.01234 -9.6479,0.136312 -13.3221,3.362297 -2.9636,2.602035 -3.8442,4.2096 -3.8442,7.01768 0,8.720511 1.0738,9.409891 30.3541,19.487351 20.5229,7.06339 24.7042,9.01511 30.4658,14.22033 8.2904,7.48984 11.1424,21.17146 7.2235,34.65207 -3.2227,11.08551 -15.4847,21.14215 -30.5693,25.07118 -7.7405,2.01616 -23.5338,2.04088 -32.6787,0.0511 z"
     id="path38" />
  <path
     style="fill:#000000;stroke-width:1.08752"
     d=""
     id="path39" />
  <path
     style="fill:#000000;stroke-width:1.08752"
     d="m 1203.188,190.8661 c -12.2906,-2.67293 -33.1582,-13.12094 -34.8115,-17.4295 -0.6273,-1.63475 1.393,-4.60047 9.1181,-13.38512 l 4.1394,-4.70713 8.1322,4.61086 c 12.3712,7.01434 17.8902,8.6097 29.7845,8.6097 11.5474,0 14.7612,-0.86984 18.6274,-5.04154 3.4037,-3.67264 3.6233,-9.84553 0.4706,-13.22954 -3.317,-3.5604 -6.433,-4.8911 -28.4997,-12.17113 -24.3478,-8.03259 -30.5165,-11.7726 -35.1973,-21.33981 -2.2395,-4.57753 -3.1077,-8.24234 -3.4813,-14.69488 -0.4613,-7.969569 -0.2465,-9.106452 2.9456,-15.590654 7.7953,-15.834371 21.3622,-22.683924 44.6889,-22.562209 13.0349,0.06801 22.6808,2.29398 33.4888,7.728155 12.6201,6.34523 12.5391,6.044875 4.5404,16.844515 l -6.7876,9.164524 -6.6488,-3.650593 c -8.8607,-4.865088 -17.6833,-7.020504 -28.7363,-7.020504 -8.9265,0 -9.2043,0.08011 -12.8217,3.697553 -5.8513,5.851264 -4.675,13.652483 2.6217,17.387043 1.6085,0.82329 11.7191,4.536 22.468,8.25047 22.2891,7.70243 26.2205,9.51462 32.0326,14.7655 8.2904,7.48984 11.1424,21.17146 7.2235,34.65207 -3.2227,11.08551 -15.4847,21.14215 -30.5693,25.07118 -7.7553,2.02002 -23.5375,2.03981 -32.7282,0.041 z"
     id="path40" />
  <path
     style="fill:#000000;stroke-width:1.08752"
     d="m 1200.618,190.23562 c -9.3518,-2.44799 -23.8951,-9.33915 -29.3887,-13.92545 -3.4514,-2.88131 -3.6352,-3.33277 -2.3245,-5.70888 0.7827,-1.41907 4.0124,-5.44534 7.1771,-8.94725 l 5.7539,-6.36711 8.5751,4.90591 c 11.7485,6.72151 17.2791,8.37207 28.0523,8.37207 12.0987,0 15.4004,-0.78827 19.1949,-4.58273 4.3535,-4.35357 4.4386,-10.1652 0.2065,-14.11245 -4.1682,-3.88759 -4.8724,-4.18568 -27.6353,-11.69809 -24.3887,-8.04896 -30.5908,-11.80928 -35.2776,-21.38875 -4.456,-9.10783 -4.946,-20.877523 -1.2091,-29.040123 7.6032,-16.607657 21.5585,-23.931824 45.3623,-23.80762 13.0349,0.06801 22.6808,2.29398 33.4888,7.728155 12.5776,6.323871 12.4899,6.004377 4.6334,16.887261 l -6.669,9.23807 -6.7546,-3.708739 c -8.9637,-4.921716 -17.7522,-7.07865 -28.8421,-7.07865 -8.9265,0 -9.2043,0.08011 -12.8217,3.697553 -4.1955,4.195481 -4.9247,9.291679 -1.9395,13.553723 2.1315,3.04307 5.6649,4.59696 28.7208,12.63059 20.686,7.20781 24.623,9.05282 30.341,14.2187 8.2904,7.48984 11.1424,21.17146 7.2235,34.65207 -3.2227,11.08551 -15.4847,21.14215 -30.5693,25.07118 -8.9649,2.33506 -25.1592,2.06464 -35.2982,-0.58944 z"
     id="path41" />
  <path
     style="fill:#000000;stroke-width:1.08752"
     d="m 1200.618,190.23562 c -9.3518,-2.44799 -23.8951,-9.33915 -29.3887,-13.92545 -3.4466,-2.87733 -3.6341,-3.33606 -2.3334,-5.70888 0.7778,-1.41907 3.9512,-5.39761 7.052,-8.84119 l 5.6377,-6.26105 12.2351,6.22264 c 12.0487,6.12782 12.3991,6.22921 22.9959,6.65484 12.52,0.50287 17.3437,-0.72214 21.2843,-5.40523 3.8797,-4.61082 3.6236,-8.99037 -0.7801,-13.34065 -2.8735,-2.83867 -7.6448,-4.87018 -25.5163,-10.86432 -26.1891,-8.78388 -32.1281,-12.32665 -36.8528,-21.98344 -4.456,-9.10783 -4.946,-20.877523 -1.2091,-29.040123 7.6032,-16.607657 21.5585,-23.931824 45.3623,-23.80762 13.0349,0.06801 22.6808,2.29398 33.4888,7.728155 12.5695,6.31983 12.484,6.012592 4.6833,16.818136 l -6.6191,9.168943 -8.4358,-4.257069 c -9.5381,-4.813392 -16.5196,-6.392068 -28.2682,-6.392068 -7.7807,0 -8.2697,0.15305 -11.8142,3.697553 -2.8141,2.81405 -3.6976,4.618537 -3.6976,7.551965 0,6.771518 2.978,8.810008 23.3816,16.005588 26.0702,9.19394 31.3821,11.54919 36.7967,16.31533 8.9117,7.84433 11.9115,21.26309 7.8651,35.1822 -3.2227,11.08551 -15.4847,21.14215 -30.5693,25.07118 -8.9649,2.33506 -25.1592,2.06464 -35.2982,-0.58944 z"
     id="path42" />
  <path
     style="fill:#000000;stroke-width:1.08752"
     d="m 1200.6977,190.25585 c -9.5279,-2.49482 -24.0807,-9.3554 -29.4266,-13.87246 -3.4861,-2.94557 -3.6763,-3.40855 -2.3752,-5.7821 0.7778,-1.41907 3.9512,-5.39761 7.052,-8.84119 l 5.6377,-6.26105 12.2351,6.22264 c 12.0487,6.12782 12.3991,6.22921 22.9959,6.65484 6.5356,0.2625 12.286,-0.0712 14.6453,-0.84981 4.8005,-1.58429 9.3933,-6.84832 9.3933,-10.76594 0,-7.08059 -5.0477,-10.06934 -32.2456,-19.09231 -22.6287,-7.50717 -28.6733,-11.21869 -33.4354,-20.5302 -4.6899,-9.17041 -5.2669,-21.018071 -1.4316,-29.395503 5.417,-11.832199 15.5968,-19.87551 28.5058,-22.523209 8.8806,-1.821422 25.6218,-1.5938 34.5157,0.469293 7.6744,1.780207 23.33,9.042361 25.7316,11.936114 1.5155,1.826132 1.2046,2.403456 -7.7809,14.446193 l -4.1886,5.61367 -8.3699,-4.169884 c -9.8159,-4.890294 -16.8211,-6.5137 -28.1075,-6.5137 -7.8886,0 -8.357,0.145415 -11.9091,3.697553 -2.6477,2.647741 -3.6976,4.675034 -3.6976,7.140346 0,7.602517 2.2542,9.022087 29.6931,18.699117 21.5897,7.61414 25.4165,9.40462 31.1268,14.56355 8.2904,7.48984 11.1424,21.17146 7.2235,34.65207 -3.2227,11.08551 -15.4847,21.14215 -30.5693,25.07118 -8.9325,2.32662 -25.161,2.06433 -35.2185,-0.56921 z"
     id="path43" />
  <path
     style="fill:#000000;stroke-width:1.08752"
     d="m 1200.6977,190.25585 c -9.5279,-2.49482 -24.0807,-9.3554 -29.4266,-13.87246 -3.4759,-2.93698 -3.674,-3.41548 -2.3939,-5.7821 0.7676,-1.41907 3.941,-5.42448 7.052,-8.9009 l 5.6564,-6.32076 12.0221,6.18931 c 11.6107,5.97753 12.3736,6.20738 22.2941,6.7175 6.0235,0.30973 12.1508,0.0183 14.8145,-0.70472 5.349,-1.45178 10.1389,-6.56398 10.1389,-10.82094 0,-7.04118 -5.529,-10.24665 -33.8767,-19.63999 -20.8784,-6.9183 -27.1326,-10.84781 -31.8043,-19.98252 -4.6746,-9.14058 -5.2655,-21.021038 -1.459,-29.335543 5.0842,-11.105422 14.2561,-18.893412 26.0711,-22.137389 7.8516,-2.15575 27.7532,-2.149827 36.9879,0.01101 7.9016,1.848884 21.8313,8.214518 25.1595,11.497426 2.2981,2.266839 2.4701,1.912607 -7.2626,14.955195 l -4.2322,5.671484 -7.2387,-3.748119 c -9.4419,-4.888857 -18.2236,-7.05109 -28.6376,-7.05109 -8.2055,0 -8.54,0.104683 -12.2779,3.842555 -2.7089,2.708846 -3.8426,4.815537 -3.8426,7.140346 0,7.431715 1.9794,8.672275 29.1632,18.278125 21.6597,7.65379 25.9064,9.64452 31.6567,14.83954 8.2904,7.48984 11.1424,21.17146 7.2235,34.65207 -3.2227,11.08551 -15.4847,21.14215 -30.5693,25.07118 -8.9325,2.32662 -25.161,2.06433 -35.2185,-0.56921 z"
     id="path44" />
  <path
     style="fill:#000000;stroke-width:1.08752"
     d="m 1200.6977,190.25585 c -9.5279,-2.49482 -24.0807,-9.3554 -29.4266,-13.87246 -3.4759,-2.93698 -3.674,-3.41548 -2.3939,-5.7821 0.7676,-1.41907 3.9421,-5.43974 7.0545,-8.9348 l 5.6589,-6.35467 12.0137,6.22291 c 11.6272,6.0227 12.3444,6.23991 22.2916,6.7514 6.0286,0.31 12.1559,0.0188 14.8204,-0.70441 5.349,-1.45178 10.1389,-6.56398 10.1389,-10.82094 0,-7.04118 -5.529,-10.24665 -33.8767,-19.63999 -20.8784,-6.9183 -27.1326,-10.84781 -31.8043,-19.98252 -4.6746,-9.14058 -5.2655,-21.021038 -1.459,-29.335543 5.0842,-11.105422 14.2561,-18.893412 26.0711,-22.137389 7.883,-2.164382 27.753,-2.149833 37.0574,0.02713 8.2007,1.918725 22.4192,8.428399 25.256,11.562965 2.0294,2.242501 2.0956,2.109718 -7.3947,14.828696 l -4.1984,5.626647 -8.9039,-4.256885 c -13.3214,-6.368882 -29.5361,-8.492596 -36.6711,-4.802969 -5.3281,2.755276 -7.9388,9.922877 -5.3656,14.730998 1.5993,2.9882 6.6927,5.32571 27.9089,12.80815 21.5084,7.58549 26.021,9.7024 31.7871,14.91174 8.2904,7.48984 11.1424,21.17146 7.2235,34.65207 -3.2227,11.08551 -15.4847,21.14215 -30.5693,25.07118 -8.9325,2.32662 -25.161,2.06433 -35.2185,-0.56921 z"
     id="path45" />
  <path
     style="fill:#000000;stroke-width:1.08752"
     d="m 1200.6977,190.25585 c -9.5279,-2.49482 -24.0807,-9.3554 -29.4266,-13.87246 -3.514,-2.96916 -3.6856,-3.39618 -2.3599,-5.87332 0.7863,-1.46924 3.9598,-5.48648 7.0521,-8.92718 l 5.6223,-6.25583 12.4151,6.34705 12.415,6.34704 h 12.5978 c 11.2795,0 12.9527,-0.25312 15.9887,-2.41869 4.0543,-2.892 6.3624,-7.9102 5.4007,-11.74201 -1.1057,-4.40545 -8.403,-8.16113 -30.3625,-15.62673 -24.3385,-8.27432 -30.0884,-11.75328 -34.8662,-21.09545 -4.6746,-9.14058 -5.2655,-21.021038 -1.459,-29.335543 5.0842,-11.105422 14.2561,-18.893412 26.0711,-22.137389 7.9672,-2.1875 27.7499,-2.149612 37.2626,0.07137 8.3251,1.943681 22.1219,8.28238 25.0358,11.502204 2.0486,2.263641 2.1287,2.102629 -7.4137,14.890269 l -4.2324,5.671688 -7.5066,-3.780254 c -13.6995,-6.898975 -31.642,-9.208952 -38.5952,-4.96889 -4.366,2.662378 -6.5141,7.761849 -5.1999,12.344175 1.2708,4.43097 5.3739,6.55097 28.8409,14.90141 20.9674,7.46096 25.563,9.63573 31.2842,14.80451 8.2904,7.48983 11.1424,21.17145 7.2235,34.65207 -3.2227,11.08551 -15.4847,21.14215 -30.5693,25.07118 -8.9325,2.32662 -25.161,2.06433 -35.2185,-0.56921 z"
     id="path46" />
  <path
     style="fill:#000000;stroke-width:1.08752"
     d="m 1200.6977,190.25585 c -9.5279,-2.49482 -24.0807,-9.3554 -29.4266,-13.87246 -3.514,-2.96916 -3.6856,-3.39618 -2.3599,-5.87332 0.7863,-1.46924 3.9598,-5.4979 7.0521,-8.95255 l 5.6223,-6.28121 12.0113,6.1567 c 11.2877,5.78583 12.5979,6.19387 21.7503,6.774 15.0491,0.95389 23.1339,-2.29339 25.0873,-10.07636 1.8326,-7.30192 -3.5263,-10.71767 -32.1022,-20.46158 -22.5134,-7.67668 -28.4707,-11.36532 -33.1581,-20.5308 -2.5069,-4.9019 -3.3024,-8.11742 -3.6978,-14.94613 -0.4672,-8.071757 -0.2577,-9.200163 2.8996,-15.613458 4.0046,-8.134564 11.0251,-15.018918 19.0733,-18.703493 11.2602,-5.155116 35.0363,-5.334318 49.8366,-0.375623 7.3529,2.463531 17.1691,7.666475 19.2936,10.22637 1.4075,1.69599 1.2481,1.989675 -7.8391,14.441689 l -4.1671,5.710137 -5.6502,-2.863175 c -9.5317,-4.830063 -17.2483,-7.02399 -27.0258,-7.683759 -10.5098,-0.709185 -14.3789,0.656383 -17.6765,6.238829 -2.0844,3.528622 -2.2113,5.429983 -0.5985,8.969653 1.6888,3.70635 4.6027,5.135 26.9116,13.19411 22.9559,8.29284 26.9964,10.19016 32.7281,15.36839 8.2904,7.48984 11.1424,21.17146 7.2235,34.65207 -3.2227,11.08551 -15.4847,21.14215 -30.5693,25.07118 -8.9325,2.32662 -25.161,2.06433 -35.2185,-0.56921 z"
     id="path47" />
  <path
     style="fill:#000000;stroke-width:1.08752"
     d="m 1204.4235,191.3819 c -10.5232,-2.1047 -30.3323,-11.35451 -34.7349,-16.21938 -2.5632,-2.83232 -1.6992,-4.70347 6.2747,-13.58896 l 5.6223,-6.26515 12.9902,6.35481 12.9901,6.3548 11.479,-0.007 c 12.9521,-0.008 17.3198,-1.52941 20.1607,-7.02311 4.7107,-9.10958 -0.073,-12.69238 -31.2995,-23.44187 -22.1432,-7.62266 -28.0893,-11.32993 -32.7319,-20.40776 -2.5069,-4.9019 -3.3024,-8.11742 -3.6978,-14.94613 -0.4672,-8.071757 -0.2577,-9.200163 2.8996,-15.613458 4.0046,-8.134564 11.0251,-15.018918 19.0733,-18.703493 10.0924,-4.620457 31.9586,-5.347301 46.4015,-1.542411 6.6247,1.745231 19.695,8.100623 22.0805,10.736627 1.9104,2.111017 1.8651,2.32313 -1.5828,7.411919 -1.9522,2.88129 -4.9506,7.042172 -6.6631,9.246403 l -3.1136,4.007695 -7.8872,-3.745612 c -9.6914,-4.60244 -22.0151,-7.317622 -30.5342,-6.727384 -5.7313,0.397079 -6.7977,0.866234 -10.0596,4.425584 -3.9967,4.361179 -4.5606,7.665005 -1.9455,11.39855 2.3868,3.40768 8.1631,6.12705 28.2035,13.2776 20.2746,7.23413 25.2144,9.58915 30.9132,14.73765 8.2904,7.48984 11.1424,21.17146 7.2235,34.65207 -3.2227,11.08551 -15.4847,21.14215 -30.5693,25.07118 -6.7894,1.76842 -23.9205,2.07133 -31.4927,0.55684 z"
     id="path48" />
  <path
     style="fill:#ffffff;stroke-width:1.08752"
     d="m 1204.4235,191.37604 c -10.7619,-2.16695 -30.2142,-11.21816 -34.6548,-16.12502 -2.6529,-2.93136 -1.8285,-4.85964 5.5747,-13.03984 l 6.2422,-6.89748 12.8813,6.299 12.8813,6.29901 11.5878,0.0503 c 13.0744,0.0568 17.4041,-1.43299 20.2696,-6.9741 4.704,-9.09661 0.4324,-12.33743 -30.3009,-22.98911 -22.8163,-7.9078 -29.0971,-11.78872 -33.7204,-20.83594 -2.5169,-4.92528 -3.3122,-8.13632 -3.7079,-14.97071 -0.4672,-8.071757 -0.2577,-9.200163 2.8996,-15.613458 6.5232,-13.250497 17.8087,-20.614054 34.1288,-22.268252 19.7822,-2.005118 39.5193,2.372108 51.6538,11.455632 1.944,1.455161 3.5345,3.023549 3.5345,3.485306 0,0.461757 -2.9195,4.825162 -6.4877,9.696454 l -6.4877,8.856895 -7.9602,-3.780259 c -9.6979,-4.605514 -22.0557,-7.354346 -30.4506,-6.773353 -5.042,0.348944 -6.8763,1.02871 -9.463,3.50688 -6.3207,6.05562 -5.1598,12.643425 2.9549,16.767715 2.2342,1.13556 12.2289,5.03141 22.2104,8.65745 21.1473,7.68232 25.5909,9.80348 31.2528,14.91866 8.2904,7.48984 11.1424,21.17146 7.2235,34.65207 -3.2227,11.08551 -15.4847,21.14215 -30.5693,25.07118 -6.7998,1.77113 -23.9434,2.07106 -31.4927,0.55098 z"
     id="path49" />
  <path
     style="fill:none;fill-opacity:1;stroke-width:0.76899"
     d="m 199.9373,201.10667 c 0,-1.47508 24.31423,-55.34442 39.57518,-87.6807 5.78859,-12.26539 11.93176,-25.310671 13.65148,-28.989524 1.71972,-3.678854 4.02952,-7.539623 5.1329,-8.579488 2.5612,-2.413792 6.84275,-3.567857 13.15648,-3.546252 4.3491,0.01488 5.39802,0.31777 8.07439,2.331574 2.74797,2.06768 4.33383,4.955764 14.87276,27.08549 22.15558,46.52246 44.80862,95.36476 45.24719,97.55761 l 0.43798,2.1899 -12.9767,-0.007 c -7.13718,-0.004 -14.71935,-0.21613 -16.84925,-0.47212 l -3.87257,-0.46542 -4.74073,-10.10149 c -2.6074,-5.55583 -7.72165,-17.36846 -11.365,-26.25029 -9.24325,-22.53336 -19.70167,-46.52387 -20.28162,-46.52387 -0.73256,0 -19.56899,43.1639 -30.91144,70.8339 l -4.92156,12.00621 -8.00649,0.48988 c -9.39358,0.57475 -26.223,0.65258 -26.223,0.12127 z"
     id="path56" />
  <path
     style="fill:#af0d01;fill-opacity:1;stroke-width:0.76899"
     d="m 199.9373,201.10667 c 0,-1.47508 24.31423,-55.34442 39.57518,-87.6807 5.78859,-12.26539 11.93176,-25.310671 13.65148,-28.989524 1.71972,-3.678854 4.02952,-7.539623 5.1329,-8.579488 2.5612,-2.413792 6.84275,-3.567857 13.15648,-3.546252 4.3491,0.01488 5.39802,0.31777 8.07439,2.331574 2.74797,2.06768 4.33383,4.955764 14.87276,27.08549 22.15558,46.52246 44.80862,95.36476 45.24719,97.55761 l 0.43798,2.1899 -12.9767,-0.007 c -7.13718,-0.004 -14.71935,-0.21613 -16.84925,-0.47212 l -3.87257,-0.46542 -4.74073,-10.10149 c -2.6074,-5.55583 -7.72165,-17.36846 -11.365,-26.25029 -9.24325,-22.53336 -19.70167,-46.52387 -20.28162,-46.52387 -0.73256,0 -19.56899,43.1639 -30.91144,70.8339 l -4.92156,12.00621 -8.00649,0.48988 c -9.39358,0.57475 -26.223,0.65258 -26.223,0.12127 z"
     id="path57" />
  <path
     style="fill:#ffffff;fill-opacity:1;stroke-width:0.76899"
     d="m 716.69833,133.46508 c 0,-49.257354 0.20521,-62.760082 0.96123,-63.249394 2.1183,-1.370989 43.9502,0.172881 56.18222,2.073491 17.81348,2.767858 28.87056,19.800588 26.0411,40.114683 -1.70087,12.21138 -7.93084,21.26696 -18.03469,26.21433 -7.51703,3.68073 -15.70931,5.22553 -30.35308,5.72361 l -13.26507,0.45119 v 25.64968 25.64968 h -10.76586 -10.76585 z m 44.38163,-11.66983 c 8.46686,-0.57419 12.28244,-2.49402 14.71886,-7.40587 2.4096,-4.85779 2.58025,-12.03129 0.3576,-15.03203 -1.96602,-2.654258 -5.82815,-5.284129 -9.38331,-6.389459 -1.53006,-0.475708 -8.57818,-1.038324 -15.6625,-1.25026 l -12.88057,-0.385338 v 15.770187 15.77018 l 8.26664,-0.32452 c 4.54665,-0.17849 11.10913,-0.51729 14.58328,-0.75289 z"
     id="path59" />
</svg>
