<?xml version="1.0" encoding="UTF-8" standalone="no"?>
<svg
   version="1.1"
   width="1311px"
   height="245px"
   style="shape-rendering:geometricPrecision; text-rendering:geometricPrecision; image-rendering:optimizeQuality; fill-rule:evenodd; clip-rule:evenodd"
   id="svg22"
   sodipodi:docname="logo-full-hashpass-black-cyan.svg"
   inkscape:version="1.4.2 (ebf0e940d0, 2025-05-08)"
   xmlns:inkscape="http://www.inkscape.org/namespaces/inkscape"
   xmlns:sodipodi="http://sodipodi.sourceforge.net/DTD/sodipodi-0.dtd"
   xmlns="http://www.w3.org/2000/svg"
   xmlns:svg="http://www.w3.org/2000/svg">
  <defs
     id="defs22" />
  <sodipodi:namedview
     id="namedview22"
     pagecolor="#ffffff"
     bordercolor="#000000"
     borderopacity="0.25"
     inkscape:showpageshadow="2"
     inkscape:pageopacity="0.0"
     inkscape:pagecheckerboard="0"
     inkscape:deskcolor="#d1d1d1"
     inkscape:zoom="0.65020383"
     inkscape:cx="724.38822"
     inkscape:cy="156.87388"
     inkscape:window-width="2560"
     inkscape:window-height="1368"
     inkscape:window-x="1080"
     inkscape:window-y="670"
     inkscape:window-maximized="1"
     inkscape:current-layer="svg22" />
  <g
     id="g8"
     transform="translate(10.370041,-0.58240143)" />
  <g
     id="g11"
     transform="translate(6.5250933,3.2625467)">
    <path
       style="opacity:1"
       fill="#415166"
       d="m 116.5,68.5 c 0,-0.3333 0,-0.6667 0,-1 8.918,-0.3172 17.751,0.0161 26.5,1 0.5,42.332 0.667,84.665 0.5,127 -9,0 -18,0 -27,0 0,-17.333 0,-34.667 0,-52 -18,0 -36,0 -54,0 0,17.333 0,34.667 0,52 -9.3333,0 -18.6667,0 -28,0 0,-42.667 0,-85.333 0,-128 9.2506,-0.3178 18.4172,0.0155 27.5,1 0.4999,16.9967 0.6666,33.997 0.5,51 18,0 36,0 54,0 0,-17 0,-34 0,-51 z"
       id="path11" />
  </g>
  <g
     id="g12"
     transform="translate(6.5250933,3.2625467)"
     style="fill:#af0d01;fill-opacity:1">
    <path
       style="opacity:1;fill:#33ffcc;fill-opacity:1"
       fill="#415064"
       d="m 290.5,178.5 c -8.592,-21.426 -17.592,-42.76 -27,-64 -12.39,27.445 -24.223,55.111 -35.5,83 -11.753,0.988 -23.586,1.321 -35.5,1 15.183,-35.366 31.183,-70.366 48,-105 2.563,-6.1254 5.396,-12.1254 8.5,-18 1.167,-2.5 3,-4.3333 5.5,-5.5 5.218,-1.5628 10.551,-1.8962 16,-1 2.141,1.3076 4.141,2.8076 6,4.5 19.123,39.91 37.956,79.91 56.5,120 0.494,1.634 0.66,3.301 0.5,5 -11.338,0.167 -22.672,0 -34,-0.5 -2.712,-6.639 -5.712,-13.139 -9,-19.5 z"
       id="path12" />
    <path
       style="fill:#33ffcc;fill-opacity:0;stroke-width:1.08752"
       d="m 852.31045,184.62259 0.30174,-15.48028 11.41892,-4.64073 c 24.49287,-9.95408 66.31822,-28.05315 66.32807,-28.70213 0.01,-0.65087 -40.29652,-18.12729 -65.78432,-28.52336 l -11.96267,-4.87938 -0.90464,-14.895079 c -0.49756,-8.192292 -0.49756,-15.271597 0,-15.731787 1.82312,-1.686217 114.40941,49.649276 119.34901,54.419056 2.91591,2.81567 3.64496,12.60097 1.27963,17.17503 -0.97561,1.8866 -2.94287,4.19618 -4.37171,5.13239 -6.49785,4.25755 -112.25647,51.60654 -115.26829,51.60654 -0.37811,0 -0.55169,-6.96612 -0.38574,-15.48027 z"
       id="path6"
       transform="translate(-6.5250933,-3.2625467)" />
    <path
       style="fill:#33ffcc;fill-opacity:0;stroke-width:0.384495"
       d="m 851.11303,193.29525 c 0.0186,-4.48855 0.15095,-11.56292 0.29418,-15.72082 0.226,-6.56093 0.3535,-7.66268 0.96492,-8.3383 0.38748,-0.42815 3.99129,-2.09344 8.00846,-3.70062 12.08141,-4.83352 33.21092,-13.64533 45.87368,-19.13108 20.4985,-8.88034 24.00733,-10.47066 23.72505,-10.75294 -0.79329,-0.79329 -50.19303,-21.86138 -71.40241,-30.45183 -2.96061,-1.19914 -5.60685,-2.31929 -5.88053,-2.48922 -0.73164,-0.45426 -1.19166,-6.879607 -1.48403,-20.728195 l -0.25391,-12.026736 3.04025,1.309543 c 19.93812,8.588067 48.87344,21.350081 65.64496,28.952918 4.40355,1.99621 12.44911,5.84819 17.87901,8.55995 5.42991,2.71176 13.41952,6.52451 17.7547,8.47277 12.47151,5.60478 13.15521,5.95622 15.2231,7.82524 3.31836,2.99921 4.93194,8.85124 3.85918,13.99622 -1.09501,5.2517 -3.11668,8.14899 -7.26824,10.41629 -3.86157,2.10893 -16.35191,8.00226 -22.5799,10.6539 -2.85487,1.21549 -6.7374,2.9853 -8.62784,3.9329 -11.47161,5.75022 -72.2433,32.57424 -83.93928,37.04995 l -0.86512,0.33106 z"
       id="path7"
       transform="translate(-6.5250933,-3.2625467)" />
    <path
       style="fill:#33ffcc;fill-opacity:0;stroke-width:0.271879"
       d="m 851.11943,192.96604 c 0.001,-4.67292 0.12597,-11.7994 0.27679,-15.83662 l 0.27421,-7.34041 0.74276,-0.70694 c 0.47707,-0.45407 4.19523,-2.09906 10.39446,-4.59873 25.91713,-10.45037 67.7399,-28.37564 67.23434,-28.81669 -0.83197,-0.7258 -48.3591,-20.95973 -69.60334,-29.63254 l -8.21439,-3.35346 -0.1477,-1.1107 c -0.67727,-5.093126 -1.3309,-31.425197 -0.78006,-31.425197 0.28012,0 18.19813,7.72978 32.30989,13.938395 29.47107,12.966109 41.78436,18.586022 52.74748,24.074502 10.0892,5.05098 17.67306,8.62012 25.95318,12.21417 5.17947,2.2482 7.07834,3.38862 9.01598,5.41484 1.96333,2.05308 3.48324,6.53939 3.494,10.3132 0.009,3.2835 -1.53475,7.56253 -3.84383,10.65195 -1.01118,1.35291 -1.39874,1.59666 -6.97135,4.38455 -6.79813,3.40101 -13.99295,6.73593 -20.52755,9.51489 -2.51207,1.0683 -6.36595,2.84249 -8.56419,3.94265 -7.71319,3.86025 -35.48876,16.35174 -57.01318,25.64051 -7.16364,3.09143 -26.48016,11.22785 -26.65584,11.22785 -0.0683,0 -0.12307,-3.8233 -0.12166,-8.49622 z"
       id="path8"
       transform="translate(-6.5250933,-3.2625467)" />
    <path
       style="fill:#33ffcc;fill-opacity:0;stroke-width:1.08752"
       d="m 851.76807,185.14659 0.30037,-15.83936 21.75031,-8.88361 c 25.50893,-10.41877 55.12035,-23.22571 56.26752,-24.33571 0.81827,-0.79175 -10.27923,-5.7277 -53.00059,-23.57359 l -23.92096,-9.99245 -0.85727,-5.113402 c -0.4715,-2.812373 -0.71817,-9.943686 -0.54814,-15.847362 l 0.30913,-10.733955 7.6126,3.329632 c 42.78883,18.715144 55.59755,24.474171 77.21361,34.716617 13.75707,6.51858 26.68604,12.70587 28.73105,13.74954 7.8539,4.00826 10.77124,12.77869 6.82418,20.51557 -1.98362,3.88821 -3.5731,4.96698 -16.15884,10.96692 -29.10184,13.87358 -63.22344,29.23855 -92.5603,41.67992 l -12.26304,5.20059 z"
       id="path9"
       transform="translate(-6.5250933,-3.2625467)" />
    <path
       style="fill:#33ffcc;fill-opacity:0;stroke-width:0.384495"
       d="m 851.34458,185.87866 0.17507,-15.58857 1.12554,-1.07538 c 0.72177,-0.68961 3.81521,-2.14751 8.62319,-4.064 21.68741,-8.64471 68.82457,-28.77888 68.82457,-29.39773 0,-0.26323 -3.67799,-1.88658 -25.9534,-11.45502 -12.5585,-5.39453 -32.41952,-13.71684 -46.57863,-19.51773 l -5.43769,-2.22778 -0.22949,-2.54151 c -0.46028,-5.097597 -0.74014,-29.64839 -0.33796,-29.64839 0.45339,0 28.25102,12.063351 45.85511,19.899761 24.33449,10.832429 28.0208,12.525709 35.78838,16.439129 9.33811,4.70467 19.82836,9.66425 27.84551,13.16478 6.56877,2.86813 7.84617,3.6041 9.99865,5.76067 1.93976,1.94344 3.25608,5.42926 3.54206,9.37993 0.26534,3.66558 -0.7032,7.16738 -2.93926,10.627 -1.52345,2.35708 -1.58901,2.40376 -7.60705,5.41659 -6.3935,3.2008 -17.42283,8.30833 -20.90566,9.68113 -1.13388,0.44694 -4.57513,2.03306 -7.64721,3.52472 -14.95133,7.25967 -56.43545,25.61751 -80.51698,35.63093 l -3.79982,1.58002 z"
       id="path10"
       transform="translate(-6.5250933,-3.2625467)" />
    <path
       style="fill:#33ffcc;fill-opacity:0;stroke-width:0.0961237"
       d="m 851.02779,198.23706 c -0.11277,-5.23997 0.10899,-18.31773 0.44059,-25.98338 l 0.10603,-2.45116 0.73377,-0.74328 0.73376,-0.74326 4.23337,-1.69315 c 11.97481,-4.78937 26.551,-10.80619 39.2224,-16.19039 14.05029,-5.9701 33.67113,-14.57924 33.52568,-14.71024 -0.0765,-0.0689 -9.14892,-4.04527 -16.27147,-7.13167 -18.9842,-8.22637 -40.71918,-17.35602 -58.64682,-24.63425 l -3.03925,-1.23387 -0.0618,-0.72804 c -0.37044,-4.365304 -0.62846,-8.324402 -0.84931,-13.031883 -0.12571,-2.679596 -0.17952,-18.912384 -0.0631,-19.028869 0.0626,-0.06267 7.36361,3.062428 19.6521,8.411877 17.41889,7.582831 34.04674,14.967113 53.43756,23.731165 2.00899,0.908 5.05851,2.37942 6.77672,3.26983 10.99944,5.70013 23.14,11.43687 34.38163,16.24625 2.71409,1.16114 4.28805,2.23326 6.23288,4.24557 0.897,0.92814 0.99516,1.06925 1.4227,2.04545 1.38965,3.17286 1.97389,5.9322 1.86409,8.80415 -0.0941,2.46078 -0.63134,4.52026 -1.79294,6.87284 -0.9687,1.96189 -2.62619,4.34921 -3.30855,4.76539 -0.53302,0.32508 -8.38216,4.25806 -11.11618,5.56999 -5.54824,2.66234 -11.20151,5.22965 -14.17825,6.43874 -3.05806,1.24212 -5.52309,2.36716 -8.79532,4.01418 -6.4175,3.23015 -29.04571,13.4775 -48.4944,21.96105 -10.62052,4.6327 -28.27146,12.15407 -35.963,15.32446 -0.0791,0.0326 -0.12912,-0.89696 -0.18293,-3.3975 z"
       id="path15"
       transform="translate(-6.5250933,-3.2625467)" />
  </g>
  <g
     id="g13"
     transform="translate(6.5250933,3.2625467)">
    <path
       style="opacity:1"
       fill="#404e61"
       d="m 613.5,144.5 c -17.826,-0.997 -35.826,-1.33 -54,-1 0,17.333 0,34.667 0,52 -9,0 -18,0 -27,0 0,-42.333 0,-84.667 0,-127 8.818,-0.9933 17.818,-1.3266 27,-1 0,17.3333 0,34.667 0,52 18,0 36,0 54,0 -0.167,-17.003 0,-34.0033 0.5,-51 8.749,-0.9839 17.582,-1.3172 26.5,-1 0,42.667 0,85.333 0,128 -9,0 -18,0 -27,0 0,-17 0,-34 0,-51 z"
       id="path13" />
  </g>
  <g
     id="g14"
     transform="translate(6.5250933,3.2625467)"
     style="fill:#33ffcc">
    <path
       style="opacity:1;fill:#33ffcc"
       fill="#af0d01"
       d="m 921.5,100.5 c 12.697,6.681 25.697,12.848 39,18.5 2.109,1.141 3.942,2.641 5.5,4.5 3.913,7.787 3.08,14.954 -2.5,21.5 -7.974,4.143 -15.974,7.977 -24,11.5 -4.522,1.764 -8.855,3.764 -13,6 -27.11,12.556 -54.443,24.556 -82,36 -0.167,-10.672 0,-21.339 0.5,-32 0.5,-0.5 1,-1 1.5,-1.5 26.021,-10.354 51.688,-21.187 77,-32.5 -25.827,-11.387 -51.827,-22.387 -78,-33 -0.999,-10.9798 -1.332,-21.9798 -1,-33 25.784,11.0586 51.451,22.3919 77,34 z"
       id="path14" />
  </g>
  <path
     style="fill:#000000;stroke-width:1.08752"
     d="M 716.67275,133.86001 V 70.879692 l 4.07818,-0.673622 c 6.66475,-1.100863 51.29937,1.295283 57.1436,3.067672 16.4462,4.987662 25.12345,20.766613 22.37185,40.681578 -3.01206,21.8 -19.04473,31.73861 -51.24005,31.76355 l -10.60327,0.008 v 25.55661 25.55662 H 727.5479 716.67275 Z m 54.48843,-13.82202 c 4.08331,-2.37677 6.25227,-7.104 6.35106,-13.84209 0.0487,-3.32387 -0.67105,-4.91937 -3.49177,-7.740085 -4.41382,-4.413819 -11.15998,-6.016993 -25.31954,-6.016993 h -10.27787 v 15.367088 15.36708 l 14.52223,-0.49252 c 11.8939,-0.40338 15.19074,-0.88164 18.21589,-2.64248 z"
     id="path23" />
  <path
     style="fill:#000000;stroke-width:1.08752"
     d="m 41.325591,134.96828 c 0,-55.294011 0.201006,-63.036683 1.650931,-63.593071 0.908012,-0.348437 7.025287,-0.326023 13.593944,0.04981 L 68.51348,72.108347 V 97.498803 122.88926 H 96.245126 123.97677 V 97.396824 c 0,-14.020839 0.44,-25.76437 0.97778,-26.096736 0.53778,-0.332366 6.16568,-0.286878 12.50643,0.101084 l 11.52865,0.705387 v 62.910641 62.91063 h -12.48675 -12.48675 l -0.29156,-25.82849 -0.29156,-25.82849 -27.459763,-0.29056 -27.459767,-0.29055 v 26.11905 26.11904 H 54.919535 41.325591 Z"
     id="path26" />
  <path
     style="fill:#000000;stroke-width:1.08752"
     d=""
     id="path27" />
  <path
     style="fill:#000000;stroke-width:1.08752"
     d="m 411.71939,202.51056 c -11.54282,-2.51034 -26.14811,-9.36811 -34.65964,-16.27411 l -2.73745,-2.22109 8.44038,-9.0868 8.44039,-9.0868 6.52509,4.36675 c 8.45957,5.66135 18.24138,8.8864 29.32562,9.66863 14.33095,1.01135 22.33137,-2.81349 22.33137,-10.67617 0,-9.30329 -0.51305,-9.64484 -28.50086,-18.97374 -24.30954,-8.10285 -25.5005,-8.6325 -30.9056,-13.74442 -14.13316,-13.36655 -14.30461,-34.05313 -0.40721,-49.130027 9.62799,-10.44514 20.66686,-14.32955 38.01874,-13.37823 13.86898,0.76037 21.73441,2.76191 33.21384,8.45203 14.11717,6.99759 13.6623,5.80315 6.37824,16.74861 -7.18427,10.795527 -5.92468,10.526677 -19.97218,4.262827 -7.80486,-3.480217 -10.70517,-4.193837 -18.63079,-4.584117 -5.65882,-0.27866 -10.95731,0.056 -13.34098,0.84272 -6.16111,2.033347 -8.89312,9.221587 -5.95537,15.669257 1.96423,4.31101 20.44102,11.6183 35.94781,14.21681 6.34781,1.06372 18.89839,7.90379 24.16396,13.16936 6.53067,6.53067 8.75162,13.31782 7.95315,24.30465 -1.07011,14.72464 -5.40352,22.28691 -16.98028,29.63243 -8.3663,5.30845 -17.24263,7.45708 -30.40042,7.35881 -6.36694,-0.0475 -14.57845,-0.73938 -18.24781,-1.53738 z"
     id="path29" />
  <path
     style="clip-rule:evenodd;fill:#000000;fill-rule:evenodd;stroke-width:1.08752;image-rendering:optimizeQuality;shape-rendering:geometricPrecision;text-rendering:geometricPrecision"
     d="m 1048.5498,200.28754 c -11.5428,-2.51034 -26.1481,-9.36811 -34.6596,-16.27411 l -2.7375,-2.22109 8.4404,-9.0868 8.4404,-9.0868 6.5251,4.36675 c 8.4596,5.66135 18.2414,8.8864 29.3256,9.66863 14.331,1.01135 22.3314,-2.81349 22.3314,-10.67617 0,-9.30329 -0.5131,-9.64484 -28.5009,-18.97374 -24.3095,-8.10285 -25.5005,-8.6325 -30.9056,-13.74442 -14.1331,-13.36655 -14.3046,-34.05313 -0.4072,-49.130032 9.628,-10.44514 20.6669,-14.32955 38.0188,-13.37823 13.8689,0.76037 21.7344,2.76191 33.2138,8.45203 14.1172,6.99759 13.6623,5.80315 6.3782,16.74861 -7.1842,10.795532 -5.9246,10.526682 -19.9721,4.262832 -7.8049,-3.480222 -10.7052,-4.193842 -18.6308,-4.584122 -5.6589,-0.27866 -10.9573,0.056 -13.341,0.84272 -6.1611,2.03335 -8.8931,9.221592 -5.9554,15.669262 1.9642,4.31101 20.441,11.6183 35.9478,14.21681 6.3478,1.06372 18.8984,7.90379 24.164,13.16936 6.5307,6.53067 8.7516,13.31782 7.9531,24.30465 -1.0701,14.72464 -5.4035,22.28691 -16.9802,29.63243 -8.3663,5.30845 -17.2427,7.45708 -30.4005,7.35881 -6.3669,-0.0475 -14.5784,-0.73938 -18.2478,-1.53738 z"
     id="path29-6" />
  <path
     style="clip-rule:evenodd;fill:#000000;fill-rule:evenodd;stroke-width:1.08752;image-rendering:optimizeQuality;shape-rendering:geometricPrecision;text-rendering:geometricPrecision"
     d="m 1188.68,201.26129 c -11.5428,-2.51034 -26.1481,-9.36811 -34.6596,-16.27411 l -2.7375,-2.22109 8.4404,-9.0868 8.4404,-9.0868 6.5251,4.36675 c 8.4595,5.66135 18.2413,8.8864 29.3256,9.66863 14.3309,1.01135 22.3314,-2.81349 22.3314,-10.67617 0,-9.30329 -0.5131,-9.64484 -28.5009,-18.97374 -24.3095,-8.10285 -25.5005,-8.6325 -30.9056,-13.74442 -14.1332,-13.36655 -14.3046,-34.05314 -0.4072,-49.130031 9.628,-10.44514 20.6668,-14.32955 38.0187,-13.37823 13.869,0.76037 21.7344,2.76191 33.2139,8.45203 14.1171,6.99759 13.6623,5.80315 6.3782,16.74861 -7.1843,10.795531 -5.9247,10.526681 -19.9722,4.262821 -7.8048,-3.480211 -10.7051,-4.193831 -18.6308,-4.584111 -5.6588,-0.27866 -10.9573,0.056 -13.3409,0.84272 -6.1612,2.033341 -8.8932,9.221591 -5.9554,15.669261 1.9642,4.31101 20.441,11.6183 35.9478,14.21681 6.3478,1.06372 18.8984,7.90379 24.1639,13.16936 6.5307,6.53067 8.7517,13.31782 7.9532,24.30465 -1.0701,14.72464 -5.4035,22.28691 -16.9803,29.63243 -8.3663,5.30845 -17.2426,7.45708 -30.4004,7.35881 -6.3669,-0.0475 -14.5784,-0.73938 -18.2478,-1.53738 z"
     id="path29-5" />
  <path
     style="fill:#000000;stroke-width:1.08752"
     d="M 539.40771,135.0172 V 72.106559 l 11.36547,-0.695402 c 6.251,-0.382472 12.12359,-0.404483 13.05018,-0.04891 1.45485,0.558277 1.68472,4.117696 1.68472,26.086752 v 25.440261 h 27.71197 27.71196 l 0.29156,-25.584883 0.29157,-25.584885 11.96267,-0.243609 11.96267,-0.24361 0.28064,63.347777 0.28065,63.34778 h -12.5152 -12.51519 V 172.54317 147.1585 l -20.39092,-0.71263 c -11.215,-0.39195 -23.69424,-0.71402 -27.73165,-0.71571 l -7.34073,-0.003 v 26.10037 26.10037 H 552.4579 539.40771 Z"
     id="path30" />
  <path
     style="fill:#ffffff;fill-opacity:0;stroke-width:1.08752"
     d="m 200.64662,200.27694 c 0,-2.17362 29.82488,-67.72919 48.07405,-105.667556 10.29823,-21.409087 10.63394,-21.745842 21.67846,-21.745842 4.93029,0 7.26658,0.544573 9.34283,2.177748 1.79561,1.412431 7.90298,12.973407 17.37883,32.89735 19.81463,41.6623 41.23219,87.81947 42.13468,90.80483 l 0.73972,2.44691 H 323.3222 306.64923 l -3.10414,-6.79698 c -2.67548,-5.85833 -10.45484,-24.10436 -28.51118,-66.87125 -2.33339,-5.52671 -4.53671,-10.05349 -4.89625,-10.05952 -0.93048,-0.0156 -17.32694,37.20031 -30.48186,69.1863 -5.37646,13.07278 -5.46049,13.19611 -9.43866,13.85385 -6.04639,0.9997 -29.57052,0.82003 -29.57052,-0.22584 z"
     id="path1" />
  <path
     style="fill:#ffffff;fill-opacity:0;stroke-width:1.08752"
     d="m 200.64662,200.27694 c 0,-2.17362 29.82488,-67.72919 48.07405,-105.667556 10.29823,-21.409087 10.63394,-21.745842 21.67846,-21.745842 4.93029,0 7.26658,0.544573 9.34283,2.177748 1.79561,1.412431 7.90298,12.973407 17.37883,32.89735 19.81463,41.6623 41.23219,87.81947 42.13468,90.80483 l 0.73972,2.44691 H 323.3222 306.64923 l -3.10414,-6.79698 c -2.67548,-5.85833 -10.45484,-24.10436 -28.51118,-66.87125 -2.33339,-5.52671 -4.53671,-10.05349 -4.89625,-10.05952 -0.93048,-0.0156 -17.32694,37.20031 -30.48186,69.1863 -5.37646,13.07278 -5.46049,13.19611 -9.43866,13.85385 -6.04639,0.9997 -29.57052,0.82003 -29.57052,-0.22584 z"
     id="path2" />
  <path
     style="fill:#ffffff;fill-opacity:0;stroke-width:0.543758"
     d="m 204.11389,190.80846 c 12.98539,-29.8664 31.64807,-70.39232 48.90168,-106.189768 5.30976,-11.016583 7.43818,-12.429336 18.64555,-12.376084 4.44284,0.02111 5.02525,0.152924 7.14926,1.618061 4.06281,2.802518 2.70833,0.263057 23.10525,43.319131 26.59125,56.13176 37.6611,80.36915 37.6611,82.45883 v 2.09551 l -5.57352,-0.001 c -3.06543,-7.8e-4 -10.55179,-0.16271 -16.63635,-0.35985 l -11.06284,-0.35843 -0.59798,-1.40735 c -0.32888,-0.77405 -2.40913,-5.32242 -4.62276,-10.10748 -2.21363,-4.78507 -6.90835,-15.67382 -10.43273,-24.19723 -3.52437,-8.5234 -9.1561,-21.85906 -12.51497,-29.63479 -3.35887,-7.77574 -6.48368,-15.0553 -6.94404,-16.1768 -0.46036,-1.1215 -0.98341,-2.03475 -1.16235,-2.02944 -0.60933,0.0181 -21.61963,48.57822 -32.46242,75.02892 l -3.23205,7.88449 -3.25011,0.34078 c -1.78755,0.18744 -9.67277,0.53174 -17.5227,0.76512 l -14.27259,0.42433 z"
     id="path3" />
  <path
     style="fill:#ffffff;fill-opacity:0;stroke-width:1.08752"
     d="m 200.64662,200.27694 c 0,-2.17362 29.82488,-67.72919 48.07405,-105.667556 10.29823,-21.409087 10.63394,-21.745842 21.67846,-21.745842 4.93029,0 7.26658,0.544573 9.34283,2.177748 1.79561,1.412431 7.90298,12.973407 17.37883,32.89735 19.81463,41.6623 41.23219,87.81947 42.13468,90.80483 l 0.73972,2.44691 H 323.3222 306.64923 l -3.10414,-6.79698 c -2.67548,-5.85833 -10.45484,-24.10436 -28.51118,-66.87125 -2.33339,-5.52671 -4.53671,-10.05349 -4.89625,-10.05952 -0.93048,-0.0156 -17.32694,37.20031 -30.48186,69.1863 -5.37646,13.07278 -5.46049,13.19611 -9.43866,13.85385 -6.04639,0.9997 -29.57052,0.82003 -29.57052,-0.22584 z"
     id="path4" />
  <path
     style="fill:#ffffff;fill-opacity:0;stroke-width:0.192247"
     d="m 201.61947,201.71617 c -1.29527,-0.0333 -2.35503,-0.0971 -2.35503,-0.14197 0,-0.22588 9.16707,-21.21577 13.93885,-31.91586 9.65933,-21.65978 22.58445,-49.48178 31.52691,-67.86334 1.13168,-2.326192 2.60104,-5.483856 3.26526,-7.017029 1.93193,-4.459335 3.38023,-7.539693 5.98548,-12.730355 2.35049,-4.683076 2.49269,-4.913456 3.90012,-6.318688 1.87268,-1.86975 3.14608,-2.497215 6.45912,-3.182717 2.18786,-0.452689 2.96626,-0.519134 6.24804,-0.533335 5.50106,-0.02381 5.96151,0.05875 8.01494,1.437055 0.93146,0.625208 2.28441,1.635379 3.00656,2.244825 l 1.31299,1.108083 7.01668,14.706926 c 14.06458,29.479295 30.37419,64.130925 43.56891,92.567125 6.27535,13.52412 6.48124,14.0474 6.48124,16.47246 v 1.11818 l -9.56431,0.002 c -8.71781,0.002 -23.0442,-0.28777 -23.98287,-0.48481 -0.2695,-0.0566 -0.55372,-0.49952 -0.95035,-1.48113 -1.28107,-3.17043 -3.92483,-8.99043 -6.09423,-13.41587 -1.2699,-2.59054 -3.52257,-7.69471 -5.00593,-11.3426 -8.43735,-20.74921 -23.99077,-57.29745 -24.37904,-57.28714 -0.0536,0.001 -0.37048,0.62863 -0.70419,1.39379 -0.3337,0.76517 -2.09332,4.7219 -3.91027,8.79273 -9.33451,20.91383 -19.95069,45.79447 -28.42303,66.61373 l -2.50351,6.15192 -1.2146,0.13847 c -2.57709,0.29381 -11.1222,0.7381 -17.65174,0.91778 -6.50887,0.17911 -8.65141,0.18673 -13.986,0.0498 z"
     id="path5" />
</svg>
