<?xml version="1.0" encoding="UTF-8" standalone="no"?>
<svg
   version="1.1"
   width="1311px"
   height="245px"
   style="shape-rendering:geometricPrecision; text-rendering:geometricPrecision; image-rendering:optimizeQuality; fill-rule:evenodd; clip-rule:evenodd"
   id="svg22"
   sodipodi:docname="logo-full-hashpass-white.svg"
   inkscape:version="1.4.2 (ebf0e940d0, 2025-05-08)"
   xmlns:inkscape="http://www.inkscape.org/namespaces/inkscape"
   xmlns:sodipodi="http://sodipodi.sourceforge.net/DTD/sodipodi-0.dtd"
   xmlns="http://www.w3.org/2000/svg"
   xmlns:svg="http://www.w3.org/2000/svg">
  <defs
     id="defs22" />
  <sodipodi:namedview
     id="namedview22"
     pagecolor="#ffffff"
     bordercolor="#000000"
     borderopacity="0.25"
     inkscape:showpageshadow="2"
     inkscape:pageopacity="0.0"
     inkscape:pagecheckerboard="0"
     inkscape:deskcolor="#d1d1d1"
     inkscape:zoom="0.91952708"
     inkscape:cx="924.93198"
     inkscape:cy="339.30485"
     inkscape:window-width="2560"
     inkscape:window-height="1368"
     inkscape:window-x="0"
     inkscape:window-y="505"
     inkscape:window-maximized="1"
     inkscape:current-layer="svg22" />
  <g
     id="g8"
     transform="translate(10.370041,-0.58240143)" />
  <g
     id="g11"
     transform="translate(6.5250933,3.2625467)">
    <path
       style="opacity:1"
       fill="#415166"
       d="m 116.5,68.5 c 0,-0.3333 0,-0.6667 0,-1 8.918,-0.3172 17.751,0.0161 26.5,1 0.5,42.332 0.667,84.665 0.5,127 -9,0 -18,0 -27,0 0,-17.333 0,-34.667 0,-52 -18,0 -36,0 -54,0 0,17.333 0,34.667 0,52 -9.3333,0 -18.6667,0 -28,0 0,-42.667 0,-85.333 0,-128 9.2506,-0.3178 18.4172,0.0155 27.5,1 0.4999,16.9967 0.6666,33.997 0.5,51 18,0 36,0 54,0 0,-17 0,-34 0,-51 z"
       id="path11" />
  </g>
  <g
     id="g12"
     transform="translate(6.5250933,3.2625467)"
     style="fill:#af0d01;fill-opacity:1">
    <path
       style="opacity:1;fill:#af0d01;fill-opacity:1"
       fill="#415064"
       d="m 290.5,178.5 c -8.592,-21.426 -17.592,-42.76 -27,-64 -12.39,27.445 -24.223,55.111 -35.5,83 -11.753,0.988 -23.586,1.321 -35.5,1 15.183,-35.366 31.183,-70.366 48,-105 2.563,-6.1254 5.396,-12.1254 8.5,-18 1.167,-2.5 3,-4.3333 5.5,-5.5 5.218,-1.5628 10.551,-1.8962 16,-1 2.141,1.3076 4.141,2.8076 6,4.5 19.123,39.91 37.956,79.91 56.5,120 0.494,1.634 0.66,3.301 0.5,5 -11.338,0.167 -22.672,0 -34,-0.5 -2.712,-6.639 -5.712,-13.139 -9,-19.5 z"
       id="path12" />
  </g>
  <g
     id="g13"
     transform="translate(6.5250933,3.2625467)">
    <path
       style="opacity:1"
       fill="#404e61"
       d="m 613.5,144.5 c -17.826,-0.997 -35.826,-1.33 -54,-1 0,17.333 0,34.667 0,52 -9,0 -18,0 -27,0 0,-42.333 0,-84.667 0,-127 8.818,-0.9933 17.818,-1.3266 27,-1 0,17.3333 0,34.667 0,52 18,0 36,0 54,0 -0.167,-17.003 0,-34.0033 0.5,-51 8.749,-0.9839 17.582,-1.3172 26.5,-1 0,42.667 0,85.333 0,128 -9,0 -18,0 -27,0 0,-17 0,-34 0,-51 z"
       id="path13" />
  </g>
  <g
     id="g14"
     transform="translate(6.5250933,3.2625467)">
    <path
       style="opacity:1"
       fill="#af0d01"
       d="m 921.5,100.5 c 12.697,6.681 25.697,12.848 39,18.5 2.109,1.141 3.942,2.641 5.5,4.5 3.913,7.787 3.08,14.954 -2.5,21.5 -7.974,4.143 -15.974,7.977 -24,11.5 -4.522,1.764 -8.855,3.764 -13,6 -27.11,12.556 -54.443,24.556 -82,36 -0.167,-10.672 0,-21.339 0.5,-32 0.5,-0.5 1,-1 1.5,-1.5 26.021,-10.354 51.688,-21.187 77,-32.5 -25.827,-11.387 -51.827,-22.387 -78,-33 -0.999,-10.9798 -1.332,-21.9798 -1,-33 25.784,11.0586 51.451,22.3919 77,34 z"
       id="path14" />
  </g>
  <path
     style="fill:#000000;stroke-width:1.08752"
     d="M 716.67275,133.86001 V 70.879692 l 4.07818,-0.673622 c 6.66475,-1.100863 51.29937,1.295283 57.1436,3.067672 16.4462,4.987662 25.12345,20.766613 22.37185,40.681578 -3.01206,21.8 -19.04473,31.73861 -51.24005,31.76355 l -10.60327,0.008 v 25.55661 25.55662 H 727.5479 716.67275 Z m 54.48843,-13.82202 c 4.08331,-2.37677 6.25227,-7.104 6.35106,-13.84209 0.0487,-3.32387 -0.67105,-4.91937 -3.49177,-7.740085 -4.41382,-4.413819 -11.15998,-6.016993 -25.31954,-6.016993 h -10.27787 v 15.367088 15.36708 l 14.52223,-0.49252 c 11.8939,-0.40338 15.19074,-0.88164 18.21589,-2.64248 z"
     id="path23" />
  <path
     style="fill:#000000;stroke-width:1.08752"
     d="m 41.325591,134.96828 c 0,-55.294011 0.201006,-63.036683 1.650931,-63.593071 0.908012,-0.348437 7.025287,-0.326023 13.593944,0.04981 L 68.51348,72.108347 V 97.498803 122.88926 H 96.245126 123.97677 V 97.396824 c 0,-14.020839 0.44,-25.76437 0.97778,-26.096736 0.53778,-0.332366 6.16568,-0.286878 12.50643,0.101084 l 11.52865,0.705387 v 62.910641 62.91063 h -12.48675 -12.48675 l -0.29156,-25.82849 -0.29156,-25.82849 -27.459763,-0.29056 -27.459767,-0.29055 v 26.11905 26.11904 H 54.919535 41.325591 Z"
     id="path26" />
  <path
     style="fill:#000000;stroke-width:1.08752"
     d=""
     id="path27" />
  <path
     style="fill:#000000;stroke-width:1.08752"
     d="m 411.71939,202.51056 c -11.54282,-2.51034 -26.14811,-9.36811 -34.65964,-16.27411 l -2.73745,-2.22109 8.44038,-9.0868 8.44039,-9.0868 6.52509,4.36675 c 8.45957,5.66135 18.24138,8.8864 29.32562,9.66863 14.33095,1.01135 22.33137,-2.81349 22.33137,-10.67617 0,-9.30329 -0.51305,-9.64484 -28.50086,-18.97374 -24.30954,-8.10285 -25.5005,-8.6325 -30.9056,-13.74442 -14.13316,-13.36655 -14.30461,-34.05313 -0.40721,-49.130027 9.62799,-10.44514 20.66686,-14.32955 38.01874,-13.37823 13.86898,0.76037 21.73441,2.76191 33.21384,8.45203 14.11717,6.99759 13.6623,5.80315 6.37824,16.74861 -7.18427,10.795527 -5.92468,10.526677 -19.97218,4.262827 -7.80486,-3.480217 -10.70517,-4.193837 -18.63079,-4.584117 -5.65882,-0.27866 -10.95731,0.056 -13.34098,0.84272 -6.16111,2.033347 -8.89312,9.221587 -5.95537,15.669257 1.96423,4.31101 20.44102,11.6183 35.94781,14.21681 6.34781,1.06372 18.89839,7.90379 24.16396,13.16936 6.53067,6.53067 8.75162,13.31782 7.95315,24.30465 -1.07011,14.72464 -5.40352,22.28691 -16.98028,29.63243 -8.3663,5.30845 -17.24263,7.45708 -30.40042,7.35881 -6.36694,-0.0475 -14.57845,-0.73938 -18.24781,-1.53738 z"
     id="path29" />
  <path
     style="clip-rule:evenodd;fill:#000000;fill-rule:evenodd;stroke-width:1.08752;image-rendering:optimizeQuality;shape-rendering:geometricPrecision;text-rendering:geometricPrecision"
     d="m 1048.5498,200.28754 c -11.5428,-2.51034 -26.1481,-9.36811 -34.6596,-16.27411 l -2.7375,-2.22109 8.4404,-9.0868 8.4404,-9.0868 6.5251,4.36675 c 8.4596,5.66135 18.2414,8.8864 29.3256,9.66863 14.331,1.01135 22.3314,-2.81349 22.3314,-10.67617 0,-9.30329 -0.5131,-9.64484 -28.5009,-18.97374 -24.3095,-8.10285 -25.5005,-8.6325 -30.9056,-13.74442 -14.1331,-13.36655 -14.3046,-34.05313 -0.4072,-49.130032 9.628,-10.44514 20.6669,-14.32955 38.0188,-13.37823 13.8689,0.76037 21.7344,2.76191 33.2138,8.45203 14.1172,6.99759 13.6623,5.80315 6.3782,16.74861 -7.1842,10.795532 -5.9246,10.526682 -19.9721,4.262832 -7.8049,-3.480222 -10.7052,-4.193842 -18.6308,-4.584122 -5.6589,-0.27866 -10.9573,0.056 -13.341,0.84272 -6.1611,2.03335 -8.8931,9.221592 -5.9554,15.669262 1.9642,4.31101 20.441,11.6183 35.9478,14.21681 6.3478,1.06372 18.8984,7.90379 24.164,13.16936 6.5307,6.53067 8.7516,13.31782 7.9531,24.30465 -1.0701,14.72464 -5.4035,22.28691 -16.9802,29.63243 -8.3663,5.30845 -17.2427,7.45708 -30.4005,7.35881 -6.3669,-0.0475 -14.5784,-0.73938 -18.2478,-1.53738 z"
     id="path29-6" />
  <path
     style="clip-rule:evenodd;fill:#000000;fill-rule:evenodd;stroke-width:1.08752;image-rendering:optimizeQuality;shape-rendering:geometricPrecision;text-rendering:geometricPrecision"
     d="m 1188.68,201.26129 c -11.5428,-2.51034 -26.1481,-9.36811 -34.6596,-16.27411 l -2.7375,-2.22109 8.4404,-9.0868 8.4404,-9.0868 6.5251,4.36675 c 8.4595,5.66135 18.2413,8.8864 29.3256,9.66863 14.3309,1.01135 22.3314,-2.81349 22.3314,-10.67617 0,-9.30329 -0.5131,-9.64484 -28.5009,-18.97374 -24.3095,-8.10285 -25.5005,-8.6325 -30.9056,-13.74442 -14.1332,-13.36655 -14.3046,-34.05314 -0.4072,-49.130031 9.628,-10.44514 20.6668,-14.32955 38.0187,-13.37823 13.869,0.76037 21.7344,2.76191 33.2139,8.45203 14.1171,6.99759 13.6623,5.80315 6.3782,16.74861 -7.1843,10.795531 -5.9247,10.526681 -19.9722,4.262821 -7.8048,-3.480211 -10.7051,-4.193831 -18.6308,-4.584111 -5.6588,-0.27866 -10.9573,0.056 -13.3409,0.84272 -6.1612,2.033341 -8.8932,9.221591 -5.9554,15.669261 1.9642,4.31101 20.441,11.6183 35.9478,14.21681 6.3478,1.06372 18.8984,7.90379 24.1639,13.16936 6.5307,6.53067 8.7517,13.31782 7.9532,24.30465 -1.0701,14.72464 -5.4035,22.28691 -16.9803,29.63243 -8.3663,5.30845 -17.2426,7.45708 -30.4004,7.35881 -6.3669,-0.0475 -14.5784,-0.73938 -18.2478,-1.53738 z"
     id="path29-5" />
  <path
     style="fill:#000000;stroke-width:1.08752"
     d="M 539.40771,135.0172 V 72.106559 l 11.36547,-0.695402 c 6.251,-0.382472 12.12359,-0.404483 13.05018,-0.04891 1.45485,0.558277 1.68472,4.117696 1.68472,26.086752 v 25.440261 h 27.71197 27.71196 l 0.29156,-25.584883 0.29157,-25.584885 11.96267,-0.243609 11.96267,-0.24361 0.28064,63.347777 0.28065,63.34778 h -12.5152 -12.51519 V 172.54317 147.1585 l -20.39092,-0.71263 c -11.215,-0.39195 -23.69424,-0.71402 -27.73165,-0.71571 l -7.34073,-0.003 v 26.10037 26.10037 H 552.4579 539.40771 Z"
     id="path30" />
</svg>
