<?xml version="1.0" encoding="UTF-8" standalone="no"?>
<svg
   version="1.1"
   width="1311px"
   height="245px"
   style="shape-rendering:geometricPrecision; text-rendering:geometricPrecision; image-rendering:optimizeQuality; fill-rule:evenodd; clip-rule:evenodd"
   id="svg22"
   sodipodi:docname="logo-full-hashpass-white.svg"
   inkscape:version="1.4.2 (ebf0e940d0, 2025-05-08)"
   xmlns:inkscape="http://www.inkscape.org/namespaces/inkscape"
   xmlns:sodipodi="http://sodipodi.sourceforge.net/DTD/sodipodi-0.dtd"
   xmlns="http://www.w3.org/2000/svg"
   xmlns:svg="http://www.w3.org/2000/svg">
  <defs
     id="defs22" />
  <sodipodi:namedview
     id="namedview22"
     pagecolor="#ffffff"
     bordercolor="#000000"
     borderopacity="0.25"
     inkscape:showpageshadow="2"
     inkscape:pageopacity="0.0"
     inkscape:pagecheckerboard="0"
     inkscape:deskcolor="#d1d1d1"
     inkscape:zoom="0.91952708"
     inkscape:cx="628.04023"
     inkscape:cy="241.42845"
     inkscape:window-width="2560"
     inkscape:window-height="1368"
     inkscape:window-x="0"
     inkscape:window-y="505"
     inkscape:window-maximized="1"
     inkscape:current-layer="svg22" />
  <g
     id="g8"
     transform="translate(6.5250933,3.2625467)">
    <path
       style="opacity:1"
       fill="#fcfcfc"
       d="m 1052.5,58.5 c 21.71,-1.4924 41.37,4.0076 59,16.5 -4.81,7.1362 -9.97,13.9695 -15.5,20.5 -12.25,-8.3073 -25.75,-12.1406 -40.5,-11.5 -9.02,2.2085 -12.18,7.7085 -9.5,16.5 2.56,3.031 5.73,5.198 9.5,6.5 15.46,3.616 30.46,8.616 45,15 12.72,8.946 17.55,21.112 14.5,36.5 -4.75,17.65 -16.25,27.817 -34.5,30.5 -26.47,4.385 -49.8,-2.115 -70,-19.5 5.35,-6.848 11.18,-13.181 17.5,-19 9.03,7.098 19.2,11.932 30.5,14.5 7.98,1.217 15.64,0.217 23,-3 5.91,-5.495 6.25,-11.161 1,-17 -4.76,-2.587 -9.76,-4.587 -15,-6 -12.53,-2.464 -24.53,-6.464 -36,-12 -13.21,-8.95 -18.38,-21.45 -15.5,-37.5 3.15,-10.4807 9.32,-18.6474 18.5,-24.5 5.93,-2.6974 11.93,-4.8641 18,-6.5 z"
       id="path8" />
  </g>
  <g
     id="g9"
     transform="translate(6.5250933,3.2625467)">
    <path
       style="opacity:1"
       fill="#fcfcfc"
       d="m 1248.5,90.5 c -1.64,1.8162 -3.14,3.8162 -4.5,6 -13.19,-10.3387 -28.02,-14.172 -44.5,-11.5 -8.46,5.5101 -9.13,11.8435 -2,19 14.88,5.27 29.88,10.27 45,15 17.66,8.49 24.16,22.323 19.5,41.5 -0.9,3.451 -2.06,6.784 -3.5,10 -8.56,11.622 -20.22,18.122 -35,19.5 -3.65,0.499 -7.32,0.665 -11,0.5 -20.71,-0.37 -38.71,-7.37 -54,-21 5.32,-6.657 10.99,-12.99 17,-19 6.28,4.433 12.95,8.266 20,11.5 10.57,4.136 21.23,4.47 32,1 8.62,-6.064 8.95,-12.397 1,-19 -13.52,-4.796 -27.19,-9.13 -41,-13 -7.96,-2.971 -14.46,-7.804 -19.5,-14.5 -10.02,-23.096 -4.19,-40.7626 17.5,-53 26.57,-8.7993 51.23,-4.966 74,11.5 -3.89,5.0459 -7.55,10.2126 -11,15.5 z"
       id="path9" />
  </g>
  <g
     id="g11"
     transform="translate(6.5250933,3.2625467)">
    <path
       style="opacity:1"
       fill="#415166"
       d="m 116.5,68.5 c 0,-0.3333 0,-0.6667 0,-1 8.918,-0.3172 17.751,0.0161 26.5,1 0.5,42.332 0.667,84.665 0.5,127 -9,0 -18,0 -27,0 0,-17.333 0,-34.667 0,-52 -18,0 -36,0 -54,0 0,17.333 0,34.667 0,52 -9.3333,0 -18.6667,0 -28,0 0,-42.667 0,-85.333 0,-128 9.2506,-0.3178 18.4172,0.0155 27.5,1 0.4999,16.9967 0.6666,33.997 0.5,51 18,0 36,0 54,0 0,-17 0,-34 0,-51 z"
       id="path11" />
  </g>
  <g
     id="g12"
     transform="translate(6.5250933,3.2625467)"
     style="fill:#af0d01;fill-opacity:1">
    <path
       style="opacity:1;fill:#af0d01;fill-opacity:1"
       fill="#415064"
       d="m 290.5,178.5 c -8.592,-21.426 -17.592,-42.76 -27,-64 -12.39,27.445 -24.223,55.111 -35.5,83 -11.753,0.988 -23.586,1.321 -35.5,1 15.183,-35.366 31.183,-70.366 48,-105 2.563,-6.1254 5.396,-12.1254 8.5,-18 1.167,-2.5 3,-4.3333 5.5,-5.5 5.218,-1.5628 10.551,-1.8962 16,-1 2.141,1.3076 4.141,2.8076 6,4.5 19.123,39.91 37.956,79.91 56.5,120 0.494,1.634 0.66,3.301 0.5,5 -11.338,0.167 -22.672,0 -34,-0.5 -2.712,-6.639 -5.712,-13.139 -9,-19.5 z"
       id="path12" />
  </g>
  <g
     id="g13"
     transform="translate(6.5250933,3.2625467)">
    <path
       style="opacity:1"
       fill="#404e61"
       d="m 613.5,144.5 c -17.826,-0.997 -35.826,-1.33 -54,-1 0,17.333 0,34.667 0,52 -9,0 -18,0 -27,0 0,-42.333 0,-84.667 0,-127 8.818,-0.9933 17.818,-1.3266 27,-1 0,17.3333 0,34.667 0,52 18,0 36,0 54,0 -0.167,-17.003 0,-34.0033 0.5,-51 8.749,-0.9839 17.582,-1.3172 26.5,-1 0,42.667 0,85.333 0,128 -9,0 -18,0 -27,0 0,-17 0,-34 0,-51 z"
       id="path13" />
  </g>
  <g
     id="g14"
     transform="translate(6.5250933,3.2625467)">
    <path
       style="opacity:1"
       fill="#af0d01"
       d="m 921.5,100.5 c 12.697,6.681 25.697,12.848 39,18.5 2.109,1.141 3.942,2.641 5.5,4.5 3.913,7.787 3.08,14.954 -2.5,21.5 -7.974,4.143 -15.974,7.977 -24,11.5 -4.522,1.764 -8.855,3.764 -13,6 -27.11,12.556 -54.443,24.556 -82,36 -0.167,-10.672 0,-21.339 0.5,-32 0.5,-0.5 1,-1 1.5,-1.5 26.021,-10.354 51.688,-21.187 77,-32.5 -25.827,-11.387 -51.827,-22.387 -78,-33 -0.999,-10.9798 -1.332,-21.9798 -1,-33 25.784,11.0586 51.451,22.3919 77,34 z"
       id="path14" />
  </g>
  <g
     id="g20"
     transform="translate(6.5250933,3.2625467)">
    <path
       style="opacity:1"
       fill="#404e63"
       d="m 415.5,67.5 c 22.918,-2.7718 43.585,2.5616 62,16 -4.029,5.53 -7.862,11.1967 -11.5,17 -1.062,1.399 -2.395,2.399 -4,3 -8.004,-4.6691 -16.504,-8.1691 -25.5,-10.5 -7.215,-1.113 -14.215,-0.4463 -21,2 -4.864,5.263 -5.197,10.763 -1,16.5 11.001,5.722 22.668,9.556 35,11.5 30.402,9.202 39.236,28.369 26.5,57.5 -7.972,9.572 -18.139,15.405 -30.5,17.5 -25.996,3.219 -48.996,-3.448 -69,-20 5.833,-6.5 11.667,-13 17.5,-19.5 13.433,11.478 28.933,16.311 46.5,14.5 12.514,-3.003 15.18,-9.67 8,-20 -15.938,-5.544 -31.938,-10.877 -48,-16 -14.52,-8.208 -20.687,-20.708 -18.5,-37.5 4.865,-17.3673 16.032,-28.034 33.5,-32 z"
       id="path20" />
  </g>
  <path
     style="fill:#000000;stroke-width:1.08752"
     d="M 716.67275,133.86001 V 70.879692 l 4.07818,-0.673622 c 6.66475,-1.100863 51.29937,1.295283 57.1436,3.067672 16.4462,4.987662 25.12345,20.766613 22.37185,40.681578 -3.01206,21.8 -19.04473,31.73861 -51.24005,31.76355 l -10.60327,0.008 v 25.55661 25.55662 H 727.5479 716.67275 Z m 54.48843,-13.82202 c 4.08331,-2.37677 6.25227,-7.104 6.35106,-13.84209 0.0487,-3.32387 -0.67105,-4.91937 -3.49177,-7.740085 -4.41382,-4.413819 -11.15998,-6.016993 -25.31954,-6.016993 h -10.27787 v 15.367088 15.36708 l 14.52223,-0.49252 c 11.8939,-0.40338 15.19074,-0.88164 18.21589,-2.64248 z"
     id="path23" />
  <path
     style="fill:#000000;stroke-width:1.08752"
     d="m 1063.5902,192.35248 c -9.8138,-0.82003 -15.7481,-2.35729 -24.6183,-6.37736 -6.4841,-2.93865 -19.2415,-11.0019 -20.4176,-12.90478 -0.3204,-0.5185 3.0952,-4.90151 7.5903,-9.74005 l 8.1729,-8.79734 6.5933,4.26145 c 11.3971,7.3663 26.1413,11.70154 35.0284,10.29937 12.4016,-1.95668 17.0005,-5.48906 17.0099,-13.06518 0.01,-7.18528 -5.4208,-10.78575 -22.9457,-15.21568 -16.0955,-4.0686 -30.86,-10.10789 -36.2271,-14.81835 -2.4839,-2.17995 -5.9564,-6.58439 -7.7168,-9.78764 -2.8256,-5.14156 -3.2036,-6.90739 -3.2259,-15.06797 -0.023,-8.486733 0.2797,-9.806191 3.697,-16.108925 5.333,-9.835916 12.2,-15.579271 23.5279,-19.678194 11.139,-4.030573 19.0378,-4.330709 33.7992,-1.284298 9.8272,2.028122 25.6639,8.602127 30.6443,12.720872 l 2.5173,2.081807 -7.1025,9.416186 -7.1024,9.416186 -7.3131,-3.679396 c -17.0971,-8.602088 -38.588,-9.428771 -42.754,-1.644604 -0.6159,1.150753 -1.1198,4.301767 -1.1198,7.002249 0,4.302127 0.456,5.257757 3.6832,7.719277 2.0258,1.54511 7.2866,3.79052 11.6908,4.9898 24.8877,6.77701 39.9764,13.07787 45.7451,19.10266 11.3804,11.88547 11.7293,30.96309 0.837,45.77432 -8.6324,11.73816 -26.7854,17.32481 -49.9934,15.38559 z"
     id="path24" />
  <path
     style="fill:#000000;stroke-width:1.08752"
     d="m 1207.7167,192.36662 c -10.3635,-1.50945 -22.7713,-6.16427 -31.2912,-11.73893 -11.8538,-7.75611 -11.7254,-7.01318 -2.9422,-17.01809 4.171,-4.75125 7.9451,-8.63863 8.3868,-8.63863 0.4417,0 4.4175,2.14027 8.8352,4.75615 11.4074,6.75478 18.0388,8.83895 28.1006,8.83173 10.8635,-0.008 15.7949,-1.42796 19.2607,-5.54677 3.6681,-4.35929 3.5997,-8.74005 -0.202,-12.94929 -2.9453,-3.261 -11.9926,-6.69691 -40.3887,-15.33854 -10.2851,-3.12999 -19.6238,-9.83394 -22.7655,-16.34248 -7.8475,-16.25783 -5.0488,-32.47081 7.5626,-43.809521 7.1587,-6.436304 10.2002,-8.003768 19.2536,-9.922609 14.8431,-3.145955 33.6049,-1.590819 46.4069,3.846608 6.7974,2.887015 16.8471,8.886987 16.8471,10.058146 0,0.484678 -3.2352,5.22991 -7.1894,10.544958 l -7.1895,9.663726 -4.992,-3.165846 c -8.5709,-5.435532 -16.1609,-7.734373 -27.3923,-8.296562 -9.5203,-0.476543 -10.6236,-0.316502 -14.0538,2.038628 -5.9624,4.093638 -6.9952,10.604454 -2.5446,16.041472 1.3122,1.60299 8.9862,4.69957 24.3239,9.815 25.243,8.41907 27.5915,9.46684 33.8357,15.09574 9.2695,8.35601 11.9653,21.53456 7.4164,36.2557 -1.7029,5.51067 -3.3009,8.05733 -7.8845,12.56475 -11.9645,11.7656 -29.8852,16.38742 -51.3938,13.25466 z"
     id="path25" />
  <path
     style="fill:#000000;stroke-width:1.08752"
     d="m 41.325591,134.96828 c 0,-55.294011 0.201006,-63.036683 1.650931,-63.593071 0.908012,-0.348437 7.025287,-0.326023 13.593944,0.04981 L 68.51348,72.108347 V 97.498803 122.88926 H 96.245126 123.97677 V 97.396824 c 0,-14.020839 0.44,-25.76437 0.97778,-26.096736 0.53778,-0.332366 6.16568,-0.286878 12.50643,0.101084 l 11.52865,0.705387 v 62.910641 62.91063 h -12.48675 -12.48675 l -0.29156,-25.82849 -0.29156,-25.82849 -27.459763,-0.29056 -27.459767,-0.29055 v 26.11905 26.11904 H 54.919535 41.325591 Z"
     id="path26" />
  <path
     style="fill:#000000;stroke-width:1.08752"
     d=""
     id="path27" />
  <path
     style="fill:#000000;stroke-width:1.08752"
     d="m 421.2658,199.56654 c -11.54282,-2.51034 -26.14811,-9.36811 -34.65964,-16.27411 l -2.73745,-2.22109 8.44038,-9.0868 8.44039,-9.0868 6.52509,4.36675 c 8.45957,5.66135 18.24138,8.8864 29.32562,9.66863 14.33095,1.01135 22.33137,-2.81349 22.33137,-10.67617 0,-9.30329 -0.51305,-9.64484 -28.50086,-18.97374 -24.30954,-8.10285 -25.5005,-8.6325 -30.9056,-13.74442 -14.13316,-13.36655 -14.30461,-34.053127 -0.40721,-49.13003 9.62799,-10.445136 20.66686,-14.329551 38.01874,-13.378229 13.86898,0.760371 21.73441,2.761913 33.21384,8.452031 14.11717,6.997589 13.6623,5.80315 6.37824,16.748608 -7.18427,10.79553 -5.92468,10.52668 -19.97218,4.26283 -7.80486,-3.480215 -10.70517,-4.193839 -18.63079,-4.584119 -5.65882,-0.278658 -10.95731,0.05604 -13.34098,0.842721 -6.16111,2.033349 -8.89312,9.221588 -5.95537,15.669258 1.96423,4.31101 20.44102,11.6183 35.94781,14.21681 6.34781,1.06372 18.89839,7.90379 24.16396,13.16936 6.53067,6.53067 8.75162,13.31782 7.95315,24.30465 -1.07011,14.72464 -5.40352,22.28691 -16.98028,29.63243 -8.3663,5.30845 -17.24263,7.45708 -30.40042,7.35881 -6.36694,-0.0475 -14.57845,-0.73938 -18.24781,-1.53738 z"
     id="path29" />
  <path
     style="fill:#000000;stroke-width:1.08752"
     d="M 539.40771,135.0172 V 72.106559 l 11.36547,-0.695402 c 6.251,-0.382472 12.12359,-0.404483 13.05018,-0.04891 1.45485,0.558277 1.68472,4.117696 1.68472,26.086752 v 25.440261 h 27.71197 27.71196 l 0.29156,-25.584883 0.29157,-25.584885 11.96267,-0.243609 11.96267,-0.24361 0.28064,63.347777 0.28065,63.34778 h -12.5152 -12.51519 V 172.54317 147.1585 l -20.39092,-0.71263 c -11.215,-0.39195 -23.69424,-0.71402 -27.73165,-0.71571 l -7.34073,-0.003 v 26.10037 26.10037 H 552.4579 539.40771 Z"
     id="path30" />
</svg>
